<?xml version="1.0" encoding="utf-8"?>
<!-- Generator: Adobe Illustrator 27.5.0, SVG Export Plug-In . SVG Version: 6.00 Build 0)  -->
<svg version="1.1" id="_x31_" xmlns="http://www.w3.org/2000/svg" xmlns:xlink="http://www.w3.org/1999/xlink" x="0px" y="0px"
	 viewBox="0 0 1200 1200" style="enable-background:new 0 0 1200 1200;" xml:space="preserve">
<path id="bg_2_" style="opacity:0.35;fill:#FFCEA1;" d="M597.203,396.237c0,0,140.251-175.989,318.111-41.444
	c177.859,134.544-164.783,569.251-290.808,577.82c-95.518,6.495-494.688-363.991-339.055-548.99S597.203,396.237,597.203,396.237z"
	/>
<path id="shadow" style="fill:#F0F0F0;" d="M981.633,998.972c0,5.699-161.01,19.235-359.625,19.235s-359.625-13.536-359.625-19.235
	c0-5.699,161.01-19.893,359.625-19.893S981.633,993.273,981.633,998.972z"/>
<g id="man_1_">
	<path style="fill:#F8B182;" d="M624.249,543.566l-10.679-7.425c0,0-4.957,3.758-12.112,1.327
		c-7.155-2.43-23.269-11.441-21.971-15.502c1.299-4.061,5.989-2.473,5.989-2.473s-3.122-3.038-1.58-5.911
		c1.542-2.873,5.472-1.402,5.472-1.402s-2.935-3.627-1.757-5.991c1.178-2.364,5.346-1.198,5.346-1.198s-3.516-3.455-0.162-6.76
		c3.354-3.305,18.052,13.249,18.913,12.302c0.861-0.948-2.281-12.387,2.971-11.447c5.253,0.94,6.373,15.052,5.665,20.312
		l9.69,10.631L624.249,543.566z"/>
	<path style="fill:#747487;" d="M865.797,955.534l1.875,14.442c0,0-7.728,6.134-14.177,5.59c-6.45-0.544-16.522-6.315-16.522-6.315
		l2.07-14.6L865.797,955.534z"/>
	<g>
		<defs>
			<path id="SVGID_1_" d="M867.439,966.792c0,0,1.779,2.252,2.873,7.143c1.081,4.835,1.649,23.592,1.649,23.592l-16.463,0.346
				l-2.931-6.229l-5.13,6.229c0,0-38.307,1.295-48.867,1.088c-10.559-0.207-13.547-1.088-13.547-1.088s-5.179-9.248,0.828-15.819
				c5.901-6.455,24.41-4.31,30.887-6.455c8.541-2.829,20.819-10.474,20.819-10.474s3.547,6.241,13.073,6.386
				C861.927,971.684,867.439,966.792,867.439,966.792z"/>
		</defs>
		<clipPath id="SVGID_00000052812919283392546930000002838786487805885607_">
			<use xlink:href="#SVGID_1_"  style="overflow:visible;"/>
		</clipPath>
		<path style="clip-path:url(#SVGID_00000052812919283392546930000002838786487805885607_);fill:#963C3E;" d="M867.439,966.792
			c0,0,1.779,2.252,2.873,7.143c1.081,4.835,1.649,23.592,1.649,23.592l-16.463,0.346l-2.931-6.229l-5.13,6.229
			c0,0-38.307,1.295-48.867,1.088c-10.559-0.207-13.547-1.088-13.547-1.088s-5.179-9.248,0.828-15.819
			c5.901-6.455,24.41-4.31,30.887-6.455c8.541-2.829,20.819-10.474,20.819-10.474s3.547,6.241,13.073,6.386
			C861.927,971.684,867.439,966.792,867.439,966.792z"/>
		<path style="opacity:0.7;clip-path:url(#SVGID_00000052812919283392546930000002838786487805885607_);fill:#49241D;" d="
			M880.443,989.024c0,0-9.938,1.863-42.652,2.899c-32.714,1.035-54.843-0.414-54.843-0.414v9.11h102.464L880.443,989.024z"/>
	</g>
	<path style="fill:#747487;" d="M769.933,955.534l1.875,14.442c0,0-7.727,6.134-14.177,5.59c-6.45-0.544-16.522-6.315-16.522-6.315
		l2.07-14.6L769.933,955.534z"/>
	<g>
		<defs>
			<path id="SVGID_00000133495433128834820600000012006471109085305741_" d="M771.576,966.792c0,0,1.779,2.252,2.873,7.143
				c1.081,4.835,1.649,23.592,1.649,23.592l-16.463,0.346l-2.932-6.229l-5.13,6.229c0,0-38.307,1.295-48.867,1.088
				c-10.559-0.207-13.547-1.088-13.547-1.088s-5.179-9.248,0.828-15.819c5.901-6.455,24.41-4.31,30.888-6.455
				c8.541-2.829,20.819-10.474,20.819-10.474s3.547,6.241,13.073,6.386C766.063,971.684,771.576,966.792,771.576,966.792z"/>
		</defs>
		<clipPath id="SVGID_00000026145115804809512570000004578552016192881328_">
			<use xlink:href="#SVGID_00000133495433128834820600000012006471109085305741_"  style="overflow:visible;"/>
		</clipPath>
		<path style="clip-path:url(#SVGID_00000026145115804809512570000004578552016192881328_);fill:#963C3E;" d="M771.576,966.792
			c0,0,1.779,2.252,2.873,7.143c1.081,4.835,1.649,23.592,1.649,23.592l-16.463,0.346l-2.932-6.229l-5.13,6.229
			c0,0-38.307,1.295-48.867,1.088c-10.559-0.207-13.547-1.088-13.547-1.088s-5.179-9.248,0.828-15.819
			c5.901-6.455,24.41-4.31,30.888-6.455c8.541-2.829,20.819-10.474,20.819-10.474s3.547,6.241,13.073,6.386
			C766.063,971.684,771.576,966.792,771.576,966.792z"/>
		<path style="opacity:0.7;clip-path:url(#SVGID_00000026145115804809512570000004578552016192881328_);fill:#49241D;" d="
			M784.579,989.024c0,0-9.938,1.863-42.652,2.899c-32.714,1.035-54.843-0.414-54.843-0.414v9.11h102.464L784.579,989.024z"/>
	</g>
	<g>
		<defs>
			<path id="SVGID_00000051350039581545076870000014631821836808151689_" d="M862.603,661.315c0,0-10.045,124.18-10.045,170.145
				c0,36.651,13.68,103.625,19.224,124.146c1.507,7.796-6.959,7.796-6.959,7.796l-33.281-1.618c0,0-5.798,0.736-7.003-4.67
				c-4.512-15.778-19.387-83.596-19.913-127.31c-0.621-51.555-1.149-110.24-1.149-110.24l-27.838-2.2
				c0,0-11.388,55.502-10.767,108.299c0.513,43.562,8.261,112.919,11.663,130.648c1.014,6.175-5.407,5.405-5.407,5.405
				l-36.474-2.099c0,0-7.154,0.363-7.62-5.999c-2.709-17.233-10.72-87.1-11.75-133.959c-1.242-56.524,4.05-149.171,4.05-149.171
				L862.603,661.315z"/>
		</defs>
		<clipPath id="SVGID_00000175304539455235536890000009078418295785650059_">
			<use xlink:href="#SVGID_00000051350039581545076870000014631821836808151689_"  style="overflow:visible;"/>
		</clipPath>
		<path style="clip-path:url(#SVGID_00000175304539455235536890000009078418295785650059_);fill:#444D65;" d="M862.603,661.315
			c0,0-10.045,124.18-10.045,170.145c0,36.651,13.68,103.625,19.224,124.146c1.507,7.796-6.959,7.796-6.959,7.796l-33.281-1.618
			c0,0-5.798,0.736-7.003-4.67c-4.512-15.778-19.387-83.596-19.913-127.31c-0.621-51.555-1.149-110.24-1.149-110.24l-27.838-2.2
			c0,0-11.388,55.502-10.767,108.299c0.513,43.562,8.261,112.919,11.663,130.648c1.014,6.175-5.407,5.405-5.407,5.405l-36.474-2.099
			c0,0-7.154,0.363-7.62-5.999c-2.709-17.233-10.72-87.1-11.75-133.959c-1.242-56.524,4.05-149.171,4.05-149.171L862.603,661.315z"
			/>
		<path style="opacity:0.22;clip-path:url(#SVGID_00000175304539455235536890000009078418295785650059_);fill:#272840;" d="
			M705.585,697.915c0,0,11.509,35.591,168.375,44.701l6.374-68.719l-178.062,5.332L705.585,697.915z"/>
	</g>
	
		<radialGradient id="SVGID_00000090293320759284493080000018286464022509655208_" cx="747.3168" cy="504.4261" r="151.9483" gradientUnits="userSpaceOnUse">
		<stop  offset="0" style="stop-color:#197BE0"/>
		<stop  offset="1" style="stop-color:#125FCF"/>
	</radialGradient>
	<path style="fill:url(#SVGID_00000090293320759284493080000018286464022509655208_);" d="M894.22,437.529
		c-13.365-16.677-62.781-27.205-62.781-27.205s-21.939-1.989-42.88-1.367c-20.942,0.621-38.179,5.482-38.179,5.482
		s-38.212,12.338-49.956,25.575c-8.141,9.176-18.682,67.018-25.401,109.767c-23.893-16.564-49.493-34.919-49.493-34.919
		l-17.79,28.53c0,0,57.59,48.218,74.877,53.564c14.871,5.146,21.519-5.421,23.9-9.803c2.382-4.381,13.404-69.736,13.404-69.736
		s0.098-1.902,0.691-1.623c0.497,0.234,0.345,1.338,0.345,1.338l-9.639,165.842c0.043,4.576,1.617,7.45,7.385,7.888
		c11.534,0.565,41.249,4.555,74.109,4.555c35.451,0,64.268-7.153,73.64-9.523c2.779-0.703,4.374-1.554,4.431-5.902l-3.242-163.654
		c0,0-0.33-2.335,0.447-2.749c0.777-0.414,1.066,1.066,1.066,1.066s15.395,48.264,19.122,77.665
		c0.389,3.072,0.724,6.628,1.012,10.524c11.767-9.653,26.193-15.316,38.731-23.709C923,524.544,901.339,446.411,894.22,437.529z"/>
	<g>
		<defs>
			<path id="SVGID_00000076580823458640204170000013759878547440314547_" d="M807.281,390.072c0,0,4.872,20.447,2.256,23.542
				c-1.255,1.485-8.553,6.44-22.779,6.44c-12.937,0-18.914-2.43-20.909-4.369c-3.834-3.727,2.406-24.257,2.406-24.257
				L807.281,390.072z"/>
		</defs>
		<clipPath id="SVGID_00000113323398662081847490000010835391452882064774_">
			<use xlink:href="#SVGID_00000076580823458640204170000013759878547440314547_"  style="overflow:visible;"/>
		</clipPath>
		<path style="clip-path:url(#SVGID_00000113323398662081847490000010835391452882064774_);fill:#FF9C72;" d="M807.281,390.072
			c0,0,4.872,20.447,2.256,23.542c-1.255,1.485-8.553,6.44-22.779,6.44c-12.937,0-18.914-2.43-20.909-4.369
			c-3.834-3.727,2.406-24.257,2.406-24.257L807.281,390.072z"/>
		<path style="opacity:0.6;clip-path:url(#SVGID_00000113323398662081847490000010835391452882064774_);fill:#FF8661;" d="
			M766.571,397.757c0,0,18.565,6.037,34.602,3.569c0,0,3.084,10.932,0,18.728c0,0,9.869-3.616,11.72-6.391
			c1.85-2.776,0-30.532,0-30.532l-48.288,6.941l-1.983,10.021L766.571,397.757z"/>
	</g>
	<path style="fill:#FF9C72;" d="M719.42,337.341c0,0-8.902,3.228-15.691-6.496c-5.826-8.346-9.82-25.914,10.305-26.053
		S719.42,337.341,719.42,337.341z"/>
	
		<linearGradient id="SVGID_00000083798356449692441560000016343117905394481025_" gradientUnits="userSpaceOnUse" x1="796.5031" y1="403.0218" x2="796.5031" y2="263.4284" gradientTransform="matrix(0.9969 -0.0787 0.0787 0.9969 -36.4744 58.0177)">
		<stop  offset="0" style="stop-color:#FFA378"/>
		<stop  offset="1" style="stop-color:#FFBC8B"/>
	</linearGradient>
	<path style="fill:url(#SVGID_00000083798356449692441560000016343117905394481025_);" d="M854.4,310.505
		c2.29,15.434,7.372,77.979-56.784,85.839c-72.799,8.522-84.101-44.718-85.889-67.081c-1.789-22.363-0.218-50.957,2.903-60.168
		c3.121-9.211,108.121-16.689,122.412-6.808C851.334,272.168,852.109,295.072,854.4,310.505z"/>
	<path style="opacity:0.3;fill:#FF8661;" d="M809.59,394.051c51.504-13.744,46.946-69.147,44.809-83.546
		c-2.291-15.433-3.066-38.337-17.357-48.218c-1.059-0.732-2.626-1.366-4.602-1.914l-4.875,5.293
		C827.565,265.666,868.182,358.706,809.59,394.051z"/>
	
		<radialGradient id="SVGID_00000023992145092462453540000017433339765826270391_" cx="726.0413" cy="2749.8533" r="12.0424" gradientTransform="matrix(1.5076 -0.6656 0.6498 1.4721 -2060.27 -3224.8596)" gradientUnits="userSpaceOnUse">
		<stop  offset="0" style="stop-color:#FF4747"/>
		<stop  offset="0.1661" style="stop-color:#FF4D4A"/>
		<stop  offset="0.3902" style="stop-color:#FF5E54"/>
		<stop  offset="0.6474" style="stop-color:#FF7B64"/>
		<stop  offset="0.9274" style="stop-color:#FFA27A"/>
		<stop  offset="1" style="stop-color:#FFAD80"/>
	</radialGradient>
	<path style="opacity:0.27;fill:url(#SVGID_00000023992145092462453540000017433339765826270391_);" d="M842.31,333.033
		c4.667,10.572-0.768,23.211-12.138,28.231c-11.371,5.02-24.372,0.519-29.039-10.053c-4.667-10.572,0.768-23.211,12.139-28.231
		C824.642,317.96,837.643,322.461,842.31,333.033z"/>
	
		<radialGradient id="SVGID_00000037670594698207358840000014084931633876107677_" cx="679.1782" cy="2727.0383" r="12.0424" gradientTransform="matrix(1.5076 -0.6656 0.6498 1.4721 -2060.27 -3224.8596)" gradientUnits="userSpaceOnUse">
		<stop  offset="0" style="stop-color:#FF4747"/>
		<stop  offset="0.1661" style="stop-color:#FF4D4A"/>
		<stop  offset="0.3902" style="stop-color:#FF5E54"/>
		<stop  offset="0.6474" style="stop-color:#FF7B64"/>
		<stop  offset="0.9274" style="stop-color:#FFA27A"/>
		<stop  offset="1" style="stop-color:#FFAD80"/>
	</radialGradient>
	<path style="opacity:0.27;fill:url(#SVGID_00000037670594698207358840000014084931633876107677_);" d="M756.834,330.639
		c4.667,10.572-0.768,23.211-12.139,28.231c-11.371,5.02-24.372,0.519-29.039-10.053c-4.667-10.572,0.768-23.211,12.138-28.231
		C739.166,315.567,752.167,320.068,756.834,330.639z"/>
	<path style="fill:#712E28;" d="M804.168,314.534c-0.545-5.023,2.931-9.52,7.763-10.044c4.831-0.524,9.19,3.124,9.734,8.147
		c0.544,5.023-2.931,9.52-7.762,10.043C809.071,323.205,804.713,319.557,804.168,314.534z"/>
	<path style="fill:#FF9C72;" d="M855.669,341.397c0,0,16.849-0.388,17.904-21.554c0.948-19.032-12.77-17.85-21.972-12.516
		l-1.727,34.796L855.669,341.397z"/>
	<path style="fill:#FF8661;" d="M870.068,316.722c0,0-1.667-6.378-7.774-4.782c-1.869,0.588-3.716,2.515-4.945,5.239
		c0,0,2.969,4.447-1.508,9.246c0,0,4.211,3.665,3.777,7.9c0,0,1.756-1.814,1.786-4.135c0.03-2.322-2.228-3.59-2.228-3.59
		s3.265-2.009,3.308-4.566c0.044-2.557-2.144-3.868-2.144-3.868s0.593-3.08,3.336-4.082
		C866.419,313.084,870.068,316.722,870.068,316.722z"/>
	<path style="fill:#712E28;" d="M738.648,312.789c-0.545-5.023,2.931-9.52,7.762-10.043c4.832-0.524,9.19,3.124,9.735,8.146
		c0.545,5.023-2.931,9.52-7.763,10.044C743.551,321.459,739.193,317.812,738.648,312.789z"/>
	<path style="opacity:0.36;fill:#FF8661;" d="M717.406,289.493c0,0,10.315-18.439,28.121-21.338
		c17.806-2.899,17.528,4.252,38.233,4.045c20.705-0.207,29.157-2.692,40.426,3.83c20.307,11.753,18.21,47.282,25.688,49.655
		c7.478,2.373,4.988-19.979,4.988-19.979l-25.552-45.308l-70.604-3.934l-36.855,10.145l-7.868,21.119L717.406,289.493z"/>
	<g>
		<defs>
			<path id="SVGID_00000134207569390191762380000012313242537544527276_" d="M872.48,261.594
				c2.795,32.041-17.346,66.951-21.824,64.771c-4.478-2.18-1.166-24.182-13.305-46.918c-6.799-12.733-30.069-16.852-46.837-12.642
				c-16.768,4.21-31.187-5.221-34.051-5.155c-2.863,0.066-18.301-2.059-29.689,10.157c-10.185,10.925-13.476,35.417-15.54,38.736
				c-6.634-5.017-8.508-37.289-2.474-62.029c6.211-25.467,27.365-40.488,44.929-45.861c18.842-5.764,39.561-7.933,56.035-3.725
				c22.361,5.712,26.578,23.602,26.578,23.602S868.753,218.575,872.48,261.594z"/>
		</defs>
		<clipPath id="SVGID_00000111877910433258802580000010128445363480119457_">
			<use xlink:href="#SVGID_00000134207569390191762380000012313242537544527276_"  style="overflow:visible;"/>
		</clipPath>
		
			<radialGradient id="SVGID_00000067950621627387688620000005615118819745910925_" cx="744.1059" cy="221.7104" r="99.0294" gradientUnits="userSpaceOnUse">
			<stop  offset="0" style="stop-color:#914C26"/>
			<stop  offset="1" style="stop-color:#6C3623"/>
		</radialGradient>
		
			<path style="clip-path:url(#SVGID_00000111877910433258802580000010128445363480119457_);fill:url(#SVGID_00000067950621627387688620000005615118819745910925_);" d="
			M872.48,261.594c2.795,32.041-17.346,66.951-21.824,64.771c-4.478-2.18-1.166-24.182-13.305-46.918
			c-6.799-12.733-30.069-16.852-46.837-12.642c-16.768,4.21-25.543-4.129-34.051-5.155c-2.844-0.343-18.301-2.059-29.689,10.157
			c-10.185,10.925-13.476,35.417-15.54,38.736c-6.634-5.017-8.508-37.289-2.474-62.029c6.211-25.467,27.365-40.488,44.929-45.861
			c18.842-5.764,39.561-7.933,56.035-3.725c22.361,5.712,26.578,23.602,26.578,23.602S868.753,218.575,872.48,261.594z"/>
		<path style="opacity:0.5;clip-path:url(#SVGID_00000111877910433258802580000010128445363480119457_);fill:#653320;" d="
			M836.304,222.53c-1.661,16.43-7.907,31.154-18.359,44.312l16.956,19.632l14.973,44.529l26.954-20.808l1.863-71.742
			c0,0-19.566-17.081-20.498-17.703C857.262,220.128,836.304,222.53,836.304,222.53z"/>
		<path style="opacity:0.3;clip-path:url(#SVGID_00000111877910433258802580000010128445363480119457_);fill:#9E603F;" d="
			M699.725,200.695c0,0,44.219,58.604,124.534,56.354c33.189-0.93,62.053-14.22,62.053-14.22l6.632-27.567
			c0,0-20.717,32.068-66.675,31.153c-72.784-1.45-104.742-79.568-104.742-79.568L699.725,200.695z"/>
	</g>
	<g>
		<defs>
			<path id="SVGID_00000096741680613245826190000006772916761524017826_" d="M805.737,347.657c2.78,0.016,4.747,2.753,3.824,5.375
				c-2.924,8.3-11.243,23.345-33.134,23.345c-22.147,0-29.259-15.609-31.478-23.955c-0.688-2.588,1.278-5.111,3.956-5.095
				c0,0,12.662,4.328,27.608,4.018C791.459,351.034,805.737,347.657,805.737,347.657z"/>
		</defs>
		<clipPath id="SVGID_00000020369663790455010120000007921567759241085631_">
			<use xlink:href="#SVGID_00000096741680613245826190000006772916761524017826_"  style="overflow:visible;"/>
		</clipPath>
		
			<radialGradient id="SVGID_00000161633986803985184350000007047550709752216221_" cx="758.7966" cy="359.6931" r="25.1656" gradientUnits="userSpaceOnUse">
			<stop  offset="0" style="stop-color:#FF674F"/>
			<stop  offset="1" style="stop-color:#F83D38"/>
		</radialGradient>
		
			<path style="clip-path:url(#SVGID_00000020369663790455010120000007921567759241085631_);fill:url(#SVGID_00000161633986803985184350000007047550709752216221_);" d="
			M805.737,347.657c2.78,0.016,4.747,2.753,3.824,5.375c-2.924,8.3-11.243,23.345-33.134,23.345
			c-22.147,0-29.259-15.609-31.478-23.955c-0.688-2.588,1.278-5.111,3.956-5.095c0,0,12.662,4.328,27.608,4.018
			C791.459,351.034,805.737,347.657,805.737,347.657z"/>
		<path style="clip-path:url(#SVGID_00000020369663790455010120000007921567759241085631_);fill:#F9F4F9;" d="M751.784,343.784
			l0.716,11.799c0,0,7.056,4.194,25.785,4.609c19.975,0.443,31.362-6.118,31.362-6.118l0.661-8.394c0,0-2.016-0.594-10.708-0.837
			C790.908,344.6,751.784,343.784,751.784,343.784z"/>
	</g>
	<path style="fill:#FF8661;" d="M777.5,339.728c-3.497,0-7.216-0.691-10.099-2.932c-1.625-1.263-1.919-3.604-0.657-5.23
		c1.264-1.623,3.606-1.919,5.229-0.656c3.14,2.437,10.589,1.053,13.704-0.001c1.948-0.664,4.067,0.388,4.724,2.338
		c0.66,1.95-0.388,4.064-2.337,4.723C787.252,338.243,782.617,339.728,777.5,339.728z"/>
	
		<linearGradient id="SVGID_00000088108705295287804940000002738431405310880687_" gradientUnits="userSpaceOnUse" x1="796.8985" y1="287.8592" x2="832.9819" y2="296.803">
		<stop  offset="0" style="stop-color:#874A28"/>
		<stop  offset="1" style="stop-color:#6C3623"/>
	</linearGradient>
	<path style="fill:url(#SVGID_00000088108705295287804940000002738431405310880687_);" d="M835.667,299.487
		c-0.435,1.995-8.189-3.135-17.803-4.458c-12.341-1.698-21.826,2.89-22.156-3.775c-0.33-6.665,13.985-6.722,21.266-4.904
		C828.089,289.128,836.062,297.673,835.667,299.487z"/>
	
		<linearGradient id="SVGID_00000078728732604016836870000018121471509174589574_" gradientUnits="userSpaceOnUse" x1="727.1678" y1="291.9413" x2="765.1017" y2="287.7778">
		<stop  offset="0" style="stop-color:#6C3623"/>
		<stop  offset="1" style="stop-color:#874A28"/>
	</linearGradient>
	<path style="fill:url(#SVGID_00000078728732604016836870000018121471509174589574_);" d="M724.657,295.945
		c0.34,2.015,10.118-2.099,18.29-2.643c11.966-0.795,21.36,3.185,22.004-3.454c0.644-6.639-13.898-6.297-22.311-4.935
		C733.486,286.396,724.347,294.112,724.657,295.945z"/>
	<path style="opacity:0.72;fill:#0A58C6;" d="M716.153,599.738c0,0,31.603,6.266,36.949,7.911c2.344,0.721,9.072,2.647,9.072,2.647
		s1.542,3.914,2.853,6.245c1.311,2.331,4.78,4.549,4.78,4.549s0.06,4.186,0.694,5.243c1.388,2.313,5.243,5.706,5.243,5.706
		l12.547,21.924c0,0,1.306,4.779,7.063,5.087s7.596-3.804,7.596-3.804s3.917,3.393,10.599,0.617
		c6.682-2.776,6.682-8.121,6.682-8.121s6.168,1.028,11.205-2.159c5.037-3.187,5.551-8.018,5.551-8.018
		c10.661-0.297,21.7-2.654,32.932-6.074l-0.55-24.355l-41.84-2.364l-49.756-4.523l-60.397-21.568L716.153,599.738z"/>
	<path style="fill:#B1BB1C;" d="M722.369,416.894c0,0-0.519-12.762-3.604-13.27c-3.084-0.507-18.246,10.13-18.246,10.13
		s-11.184-6.364-14.844-5.336c-3.659,1.028-11.949,16.258-11.949,16.258s-14.176-4.128-18.082-2.689
		c-3.906,1.439-9.405,16.347-9.405,16.347s-18.086,2.996-20.819,6.27c-2.733,3.274-1.797,14.702-1.797,14.702
		s-23.517,6.648-24.673,10.28c-1.156,3.632,2.825,13.877,2.825,13.877s-20.147,10.194-21.793,14.966
		c-1.646,4.772,10.87,10.015,10.87,10.015s-7.247,11.488-6.095,12.996c2.137,2.796,17.018-2.817,17.018-2.817l20.202-37.112
		l87.998-59.625L722.369,416.894z"/>
	<path style="fill:#FF2021;" d="M715.011,413.37c5.739-0.026,7.358,3.525,7.358,3.525c1.792,5.835-64.63,95.254-120.592,101.73
		c-4.13,0.478-8.039-1.123-7.556-9.717c-0.001-2.001,4.42-3.392,6.117-6.014c1.696-2.621-1.495-6.042,0.084-8.478
		c1.755-2.707,5.456-2.729,7.316-5.504c1.86-2.776,1.194-6.053,2.427-7.538c2.065-2.486,6.133-2.073,8.06-4.386
		c1.928-2.313,0.391-5.201,1.315-6.182c1.84-1.954,6.691-1.682,8.4-3.609c1.709-1.927,0.468-5.395,2.093-6.946
		c1.81-1.727,5.386-0.764,8.162-2.769c2.776-2.005,2.104-6.594,4.531-8.65c2.808-2.379,3.564-0.293,7.574-2.529
		c4.009-2.236,3.522-6.389,4.793-7.34c2.508-1.879,5.616-0.216,8.854-2.683c3.238-2.467,3.227-5.787,5.481-7.203
		c2.845-1.786,6.392-0.353,9.322-1.741c2.93-1.388,4.195-5.902,6.664-7.05c2.996-1.393,6.675,0.265,9.219-0.66
		c2.544-0.925,3.919-4.278,6.672-4.86c1.56-0.329,3.377,2.135,6.153,1.673C710.233,415.975,713.501,413.377,715.011,413.37z"/>
	<path style="fill:#FF553E;" d="M683.408,437.699c2.548,0.969-7.37,9.68-7.37,9.68s10.837,1.282,9.53,3.61
		s-13.258,1.171-13.258,1.171s-6.206,9.361-10.081,8.15c-3.875-1.211,3.667-8.854,3.667-8.854s-8.88,2.267-8.365-0.943
		c0.515-3.21,11.341-4.231,11.341-4.231s0.662-6.954,3.437-7.769c2.776-0.814,1.104,5.312,1.104,5.312
		S680.859,436.731,683.408,437.699z"/>
	<path style="fill:#FF553E;" d="M660.226,466.582c2.548,0.969-7.37,9.68-7.37,9.68s10.837,1.282,9.529,3.61
		c-1.307,2.328-13.258,1.172-13.258,1.172s-6.206,9.361-10.081,8.15c-3.875-1.211,3.667-8.854,3.667-8.854s-8.88,2.267-8.366-0.943
		c0.515-3.21,11.341-4.231,11.341-4.231s0.662-6.954,3.437-7.769c2.776-0.815,1.104,5.312,1.104,5.312
		S657.678,465.614,660.226,466.582z"/>
	<path style="fill:#FF553E;" d="M652.824,451.411c2.548,0.969-7.37,9.68-7.37,9.68s10.837,1.282,9.529,3.61
		c-1.307,2.328-13.258,1.171-13.258,1.171s-6.206,9.361-10.081,8.15c-3.875-1.211,3.667-8.854,3.667-8.854s-8.88,2.267-8.365-0.943
		c0.515-3.21,11.341-4.231,11.341-4.231s0.662-6.954,3.437-7.769c2.776-0.815,1.104,5.312,1.104,5.312
		S650.276,450.443,652.824,451.411z"/>
	<path style="fill:#FF553E;" d="M630.041,478.764c2.548,0.969-7.37,9.68-7.37,9.68s10.837,1.282,9.529,3.61
		c-1.307,2.328-13.258,1.171-13.258,1.171s-6.206,9.361-10.081,8.15c-3.875-1.211,3.667-8.854,3.667-8.854s-8.88,2.267-8.365-0.943
		c0.515-3.21,11.341-4.231,11.341-4.231s0.662-6.954,3.437-7.768c2.776-0.815,1.104,5.312,1.104,5.312
		S627.492,477.796,630.041,478.764z"/>
	<path style="fill:#FF553E;" d="M711.575,420.938c2.548,0.969-7.37,9.68-7.37,9.68s10.837,1.282,9.529,3.61
		c-1.307,2.328-13.258,1.171-13.258,1.171s-6.206,9.361-10.081,8.15c-3.875-1.211,3.667-8.854,3.667-8.854s-8.88,2.267-8.365-0.943
		c0.515-3.21,11.341-4.231,11.341-4.231s0.662-6.954,3.437-7.768s1.104,5.312,1.104,5.312S709.027,419.97,711.575,420.938z"/>
	<path style="fill:#B1BB1C;" d="M728.567,436.294l-6.198-19.4c0,0-6.837,3.087-10.08,6.276c-3.243,3.19-5.545,20.487-5.545,20.487
		s-10.111-0.037-14.634,3.16c-4.523,3.197-4.47,18.527-4.47,18.527s-19.401,2.493-23.307,5.165
		c-3.906,2.673-6.815,16.73-6.815,16.73s-19.984-0.173-25.082,4.627c-5.098,4.8-4.832,16.654-4.832,16.654s-21.016-2.17-23.41,1.053
		c-2.394,3.224-2.416,9.048-2.416,9.048l23.359,4.053l60.036-26.492l43.395-33.98V436.294z"/>
	<g>
		<defs>
			<path id="SVGID_00000008858222553992804720000006551971117778847899_" d="M722.369,416.894
				c30.017,55.104,53.795,111.843,68.206,171.036l45.494,28.436c0,0,7.087,5.109,2.769,11.123
				c-4.318,6.014-12.559,2.449-12.559,2.449s4.952,5.672-0.291,10.298s-10.383,0.36-10.383,0.36s2.497,6.189-4.318,8.995
				c-6.99,2.878-11.01-2.717-11.01-2.717s-0.709,6.778-7.494,7.857c-6.785,1.079-7.218-5.927-7.218-5.927l-11.177-46.122
				c-57.226-19.206-172.611-84.058-172.611-84.058s36.37-10.077,72.784-44.207C710.974,440.287,722.369,416.894,722.369,416.894z"/>
		</defs>
		<clipPath id="SVGID_00000121244692833949366970000006086749645105706897_">
			<use xlink:href="#SVGID_00000008858222553992804720000006551971117778847899_"  style="overflow:visible;"/>
		</clipPath>
		<path style="clip-path:url(#SVGID_00000121244692833949366970000006086749645105706897_);fill:#FFEEF7;" d="M722.369,416.894
			c30.017,55.104,53.795,111.843,68.206,171.036l45.494,28.436c0,0,7.087,5.109,2.769,11.123
			c-4.318,6.014-12.559,2.449-12.559,2.449s4.952,5.672-0.291,10.298s-10.383,0.36-10.383,0.36s2.497,6.189-4.318,8.995
			c-6.99,2.878-11.01-2.717-11.01-2.717s-0.709,6.778-7.494,7.857c-6.785,1.079-7.218-5.927-7.218-5.927l-11.177-46.122
			c-57.226-19.206-172.611-84.058-172.611-84.058s36.37-10.077,72.784-44.207C710.974,440.287,722.369,416.894,722.369,416.894z"/>
		<polygon style="clip-path:url(#SVGID_00000121244692833949366970000006086749645105706897_);fill:#F7E4F0;" points="
			613.932,514.176 773.456,597.985 632.309,502.894 657.517,487.241 779.213,595.518 674.561,474.418 697.135,451.321 
			785.792,592.023 711.827,432.253 		"/>
	</g>
	<path style="fill:#FFBC8B;" d="M821.211,602.169l-12.34,4.11c0,0,0.043,6.22-6.187,10.497c-6.23,4.277-23.094,11.792-25.57,8.32
		c-2.476-3.472,1.604-6.278,1.604-6.278s-4.303,0.683-5.682-2.273c-1.378-2.955,2.152-5.223,2.152-5.223s-4.662,0.18-5.851-2.178
		c-1.189-2.359,2.24-5,2.24-5s-4.872,0.748-5.512-3.917c-0.64-4.664,24.801-10.186,24.557-11.444
		c-0.244-1.257-2.325-9.886-2.325-9.886c5.334-3.607,8.949,8.067,12.738,11.783l12.792-1.249L821.211,602.169z"/>
	
		<linearGradient id="SVGID_00000090261946770579114130000004603859622420515471_" gradientUnits="userSpaceOnUse" x1="809.0953" y1="605.8605" x2="920.1213" y2="571.319">
		<stop  offset="0" style="stop-color:#1A7EE1"/>
		<stop  offset="1" style="stop-color:#125FCF"/>
	</linearGradient>
	<path style="fill:url(#SVGID_00000090261946770579114130000004603859622420515471_);" d="M928.016,579.134
		c0,0-4.778-12.092-20.506-16.101c-15.729-4.009-16.263-1.24-16.302-1.342c-2.639,0.79-5.437,1.593-8.35,2.402
		c-32.703,9.08-79.908,18.867-79.908,18.867l12.248,34.682c0,0,81.511-12.501,97.165-19.291
		C930.332,591.714,928.016,579.134,928.016,579.134z"/>
</g>
<g id="girl">
	<path style="fill:#FFBC8B;" d="M504.4,988.886c-7.401-7.657-25.662-27.845-25.648-40.612
		c0.017-16.011,17.191-82.665,17.534-111.364c0.342-28.7-6.368-150.818-7.796-150.928c-1.118-0.086-37.812-0.882-55.067-1.264
		c-0.068-1.275-0.108-2.011-0.108-2.011h-56.879c0,0-9.914,34.529-5.039,69.071c4.874,34.541,14.704,71.58,14.679,86.232
		c-0.015,8.71-4.471,17.187-6.115,41.037c-1.645,23.85,6.065,39.887-1.336,55.307c-5.651,11.773-6.143,25.255-6.143,25.255
		l27.069,28.052l26.383,3.453c0,0,5.353-0.282,3.472-2.228c-7.401-7.657-25.662-27.845-25.649-40.612
		c0.017-16.011,17.775-83.5,18.117-112.2c0.342-28.7-1.643-102.96-1.643-102.96l24.336-2.309c0,0,0.975,14.947,1.825,20.972
		c4.874,34.541,14.704,71.58,14.679,86.232c-0.015,8.71-4.009,15.748-5.654,39.598c-1.645,23.85,5.604,41.326-1.798,56.747
		c-5.651,11.773-6.143,25.255-6.143,25.255l27.069,28.052l26.383,3.453C500.928,991.114,506.281,990.832,504.4,988.886z"/>
	<g>
		<defs>
			<path id="SVGID_00000066495521843021576420000002174993940456031405_" d="M402.837,443.843
				c-0.111,16.757-1.203,31.348-10.645,37.276l5.534,12.532c0,0,22.854,10.808,32.313,9.809
				c18.064-1.907,18.099-22.246,18.099-22.246c-8.298-9.219-11.71-22.54-10.52-36.104L402.837,443.843z"/>
		</defs>
		<clipPath id="SVGID_00000057862977355816948660000015012286107067453084_">
			<use xlink:href="#SVGID_00000066495521843021576420000002174993940456031405_"  style="overflow:visible;"/>
		</clipPath>
		<path style="clip-path:url(#SVGID_00000057862977355816948660000015012286107067453084_);fill:#FF9C72;" d="M402.837,443.843
			c-0.111,16.757-1.203,31.348-10.645,37.276l5.534,12.532c0,0,22.854,10.808,32.313,9.809
			c18.064-1.907,18.099-22.246,18.099-22.246c-8.298-9.219-11.71-22.54-10.52-36.104L402.837,443.843z"/>
		<path style="opacity:0.5;clip-path:url(#SVGID_00000057862977355816948660000015012286107067453084_);fill:#FF8661;" d="
			M399.774,455.531c0,0,7.697,7.415,32.063,6.84c0,0,11.377,27.449,0.869,36.693c-10.508,9.243,10.733-0.907,10.733-0.907
			l13.967-18.844l-9.204-35.392l-52.416-0.09L399.774,455.531z"/>
	</g>
	<path style="fill:#FF9C72;" d="M482.91,407.384c0,0,7.929,2.89,13.994-5.766c5.206-7.43,8.792-23.081-9.145-23.237
		C469.822,378.226,482.91,407.384,482.91,407.384z"/>
	
		<linearGradient id="SVGID_00000131339725536693006550000000990889825018923949_" gradientUnits="userSpaceOnUse" x1="435.6482" y1="435.0252" x2="435.6482" y2="311.6275" gradientTransform="matrix(0.997 -0.077 0.077 0.997 -35.5229 56.859)">
		<stop  offset="0" style="stop-color:#FFA378"/>
		<stop  offset="1" style="stop-color:#FFBC8B"/>
	</linearGradient>
	<path style="fill:url(#SVGID_00000131339725536693006550000000990889825018923949_);" d="M490.574,380.435
		c-0.866,16.652,3.343,69.273-53.548,76.144c-64.555,7.445-74.494-39.773-76.045-59.603c-1.552-19.829-0.116-45.177,2.665-53.339
		c2.781-8.161,105.71-14.499,118.366-5.717C494.667,346.702,491.292,366.621,490.574,380.435z"/>
	<path style="opacity:0.3;fill:#FF8661;" d="M447.925,454.528c45.426-11.906,41.842-58.587,42.648-74.093
		c0.655-12.592,3.511-30.253-5.574-39.931c-5.412-1.521-15.581-4.055-16.893-4.421l12.45,10.821
		C480.556,346.904,498.714,429.794,447.925,454.528z"/>
	
		<radialGradient id="SVGID_00000021839725542542933500000013573502863613519768_" cx="516.1378" cy="2699.7656" r="10.6262" gradientTransform="matrix(1.5087 -0.663 0.6473 1.4732 -2053.6321 -3229.1165)" gradientUnits="userSpaceOnUse">
		<stop  offset="0" style="stop-color:#FF2F3B"/>
		<stop  offset="0.1451" style="stop-color:#FF353E"/>
		<stop  offset="0.3411" style="stop-color:#FF4648"/>
		<stop  offset="0.566" style="stop-color:#FF6357"/>
		<stop  offset="0.8106" style="stop-color:#FF8A6D"/>
		<stop  offset="1" style="stop-color:#FFAD80"/>
	</radialGradient>
	<path style="opacity:0.27;fill:url(#SVGID_00000021839725542542933500000013573502863613519768_);" d="M484.649,422.598
		c-1.187,0.852-2.485,1.597-3.884,2.211c-10.089,4.433-21.608,0.423-25.73-8.957c-4.122-9.38,0.716-20.578,10.805-25.01
		c8.828-3.879,18.751-1.294,23.855,5.697C489.304,406.007,487.795,414.797,484.649,422.598z"/>
	
		<radialGradient id="SVGID_00000082364837756488835130000016742228967645998001_" cx="472.6695" cy="2680.1467" r="10.6767" gradientTransform="matrix(1.5087 -0.663 0.6473 1.4732 -2053.6321 -3229.1165)" gradientUnits="userSpaceOnUse">
		<stop  offset="0" style="stop-color:#FF2F3B"/>
		<stop  offset="0.1451" style="stop-color:#FF353E"/>
		<stop  offset="0.3411" style="stop-color:#FF4648"/>
		<stop  offset="0.566" style="stop-color:#FF6357"/>
		<stop  offset="0.8106" style="stop-color:#FF8A6D"/>
		<stop  offset="1" style="stop-color:#FFAD80"/>
	</radialGradient>
	<path style="opacity:0.27;fill:url(#SVGID_00000082364837756488835130000016742228967645998001_);" d="M413.101,399.799
		c4.122,9.38-0.716,20.577-10.805,25.01c-10.089,4.433-21.608,0.423-25.73-8.957c-4.121-9.38,0.716-20.577,10.805-25.011
		C397.46,386.409,408.979,390.419,413.101,399.799z"/>
	<g>
		<defs>
			<path id="SVGID_00000176756465927791003290000008195129006605062031_" d="M407.871,417.078c-2.477,0.071-4.174,2.55-3.297,4.867
				c2.775,7.336,10.495,20.572,30.001,20.124c19.734-0.452,25.752-14.506,27.559-21.988c0.56-2.32-1.243-4.528-3.629-4.459
				c0,0-11.194,4.115-24.518,4.144C420.663,419.796,407.871,417.078,407.871,417.078z"/>
		</defs>
		<clipPath id="SVGID_00000128481862349005221130000017640010285135553957_">
			<use xlink:href="#SVGID_00000176756465927791003290000008195129006605062031_"  style="overflow:visible;"/>
		</clipPath>
		
			<radialGradient id="SVGID_00000032641811807393179600000018362403846249293443_" cx="451.1525" cy="424.0326" r="22.5112" gradientTransform="matrix(1 0.0017 -0.0017 1 1.3546 -0.873)" gradientUnits="userSpaceOnUse">
			<stop  offset="0" style="stop-color:#FF674F"/>
			<stop  offset="1" style="stop-color:#F83D38"/>
		</radialGradient>
		
			<path style="clip-path:url(#SVGID_00000128481862349005221130000017640010285135553957_);fill:url(#SVGID_00000032641811807393179600000018362403846249293443_);" d="
			M407.871,417.078c-2.477,0.071-4.174,2.55-3.297,4.867c2.775,7.336,10.495,20.572,30.001,20.124
			c19.734-0.452,25.752-14.506,27.559-21.988c0.56-2.32-1.243-4.528-3.629-4.459c0,0-11.194,4.115-24.518,4.144
			C420.663,419.796,407.871,417.078,407.871,417.078z"/>
		<path style="clip-path:url(#SVGID_00000128481862349005221130000017640010285135553957_);fill:#F9F4F9;" d="M456.6,412.907
			l-0.559,10.521c0,0-6.26,3.786-22.95,4.283c-17.8,0.529-28.823-2.937-28.823-2.937l0.185-9.78c0,0,1.792-0.543,9.538-0.818
			C421.736,413.899,456.6,412.907,456.6,412.907z"/>
	</g>
	<g>
		<defs>
			<path id="SVGID_00000074442369875315889860000014992914260098612905_" d="M492.545,328.231
				c-5.497-22.708-24.545-35.474-39.975-40.944c-20.063-7.112-46.263-1.444-46.263-1.444s2.141-27.528-30.245-27.558
				c-20.486,1.072-34.17,10.737-34.208,32.882c-0.038,22.145,15.567,22.171,15.567,22.171s-6.686,10.902-8.267,31.474
				c-1.58,20.571,5.238,49.15,10.547,62.827c4.091,10.538,11.728-7.948,12.842-17.025c2.633-21.468,3.388-29.81,4.632-30.532
				s12.077,0.137,21.552-1.09c21.911-2.835,32.697-10.474,32.697-10.474s2.007,1.48,21.84,6.496
				c19.832,5.016,29.796,3.565,30.525,5.588c1.945,5.405,3.438,12.944,4.52,18.863c0.937,5.123-0.342,28.18-0.342,28.18
				c2.648,0.843,6.268-21.823,6.691-26.791C495.698,368.604,496.691,345.358,492.545,328.231z"/>
		</defs>
		<clipPath id="SVGID_00000176026505746720252920000006594221347577493169_">
			<use xlink:href="#SVGID_00000074442369875315889860000014992914260098612905_"  style="overflow:visible;"/>
		</clipPath>
		
			<radialGradient id="SVGID_00000165941901043250887510000003729603715022724239_" cx="376.5848" cy="318.1323" r="76.5913" gradientTransform="matrix(1 0.0017 -0.0017 1 1.3546 -0.873)" gradientUnits="userSpaceOnUse">
			<stop  offset="0" style="stop-color:#FF9140"/>
			<stop  offset="1" style="stop-color:#FF6B3B"/>
		</radialGradient>
		
			<path style="clip-path:url(#SVGID_00000176026505746720252920000006594221347577493169_);fill:url(#SVGID_00000165941901043250887510000003729603715022724239_);" d="
			M492.545,328.231c-5.497-22.708-24.545-35.474-39.975-40.944c-20.063-7.112-46.263-1.444-46.263-1.444s2.141-27.528-30.245-27.558
			c-20.486,1.072-34.17,10.737-34.208,32.882c-0.038,22.145,15.567,22.171,15.567,22.171s-6.686,10.902-8.267,31.474
			c-1.58,20.571,5.238,49.15,10.547,62.827c4.091,10.538,11.728-7.948,12.842-17.025c2.633-21.468,3.388-29.81,4.632-30.532
			s12.077,0.137,21.552-1.09c21.911-2.835,32.697-10.474,32.697-10.474s2.007,1.48,21.84,6.496
			c19.832,5.016,29.796,3.565,30.525,5.588c1.945,5.405,3.438,12.944,4.52,18.863c0.937,5.123-0.342,28.18-0.342,28.18
			c2.648,0.843,6.268-21.823,6.691-26.791C495.698,368.604,496.691,345.358,492.545,328.231z"/>
		<path style="opacity:0.9;clip-path:url(#SVGID_00000176026505746720252920000006594221347577493169_);fill:#F65D31;" d="
			M434.457,283.883c0,0,27.522,15.057,32.457,34.943c4.935,19.885-4.333,38.243-4.333,38.243l13.138,6.816l10.394,51.331
			l27.064-28.952l-2.368-67.777l-41.723-38.997L434.457,283.883z"/>
		<path style="opacity:0.6;clip-path:url(#SVGID_00000176026505746720252920000006594221347577493169_);fill:#F65D31;" d="
			M356.308,261.077c0,0,33.223,11.22,18.072,40.19c11.13-6.589,21.875-12.036,31.927-15.423l7.682-13.28l-15.07-25.907
			L356.308,261.077z"/>
		<path style="opacity:0.35;clip-path:url(#SVGID_00000176026505746720252920000006594221347577493169_);fill:#FFB054;" d="
			M479.576,290.953c0,0-22.189,37.531-69.002,49.924c-44.138,11.685-72.796,1.019-72.796,1.019l-7.516-23.535
			c0,0,31.213,13.542,68.141,7.869c48.787-7.496,84.782-48.91,84.782-48.91L479.576,290.953z"/>
	</g>
	<path style="fill:#FF9C72;" d="M361.468,410.791c0,0-15.017-0.371-15.924-19.238c-0.816-16.964,11.409-15.89,19.602-11.122
		l1.486,31.015L361.468,410.791z"/>
	<path style="fill:#6149A4;" d="M406.307,285.844c-18.268,6.612-34.514,15.841-48.886,27.495c0,0-7.039,2.496-8.453-3.009
		c-1.415-5.506,8.963-4.472,8.963-4.472s-3.172-4.231,0.657-7.628c3.828-3.397,9.567,1.235,9.567,1.235s-4.123-5.779,1.388-9.122
		c5.511-3.342,11.366,1.461,11.366,1.461s-3.868-8.05,2.497-10.573c6.365-2.523,9.257,3.79,9.257,3.79s4.348-9.142,10.136-7.683
		C408.588,278.798,406.307,285.844,406.307,285.844z"/>
	<path style="fill:#FD423B;" d="M452.232,996.651c0,0-7.689-23.933-7.665-37.901c0.024-13.968,8.102-22.814,8.102-22.814
		s0.162,7.753,1.816,11.723c1.654,3.97,10.201,26.379,21.719,34.486c7.993,5.626,21.928,8.739,25.946,7.582
		c2.022-0.582-7.359-11.538-7.359-11.538s7.751,7.32,11.262,11.243c1.086,1.214,3.336,9.998-4.386,10.803
		c-9.164,0.968-24.849-3.126-24.849-3.126c-2.716-0.703-4.736-2.513-6.285-5.074l-11.749-18.95l1.062,23.717L452.232,996.651z"/>
	<path style="fill:#EF2E2E;" d="M452.232,996.651c0,0-7.185-22.446-7.644-36.55c-0.015-0.46-0.022-1.351-0.022-1.351
		c3.709,5.723,7.463,11.066,14.216,14.335l1.062,23.717L452.232,996.651z"/>
	<path style="fill:#FD423B;" d="M377.36,996.632c0,0-5.376-23.916-5.324-37.881c0.052-13.965,5.875-22.821,5.875-22.821
		s0.143,7.75,1.757,11.717c1.614,3.966,9.949,26.353,21.227,34.435c7.826,5.608,21.035,8.67,24.513,7.632
		c3.773-1.127-5.863-11.824-5.863-11.824s7.169,7.502,10.604,11.417c1.063,1.211,3.251,9.989-4.322,10.81
		c-8.988,0.986-24.361-3.075-24.361-3.075c-2.661-0.698-4.639-2.502-6.152-5.06l-11.482-18.922l0.993,23.71L377.36,996.632z"/>
	<path style="fill:#EF2E2E;" d="M377.36,996.632c0,0-4.884-22.431-5.305-36.531c-0.014-0.459-0.018-1.351-0.018-1.351
		c3.625,5.714,5.18,11.053,11.795,14.308l0.993,23.71L377.36,996.632z"/>
	<path style="fill:#FF8661;" d="M434.934,409.282c-4.633-0.008-8.805-1.352-9.538-1.602c-1.95-0.662-2.992-2.778-2.33-4.727
		c0.661-1.95,2.777-2.996,4.727-2.33c2.717,0.911,9.19,2.135,11.834,0.085c1.625-1.258,3.968-0.961,5.229,0.665
		c1.26,1.627,0.963,3.968-0.665,5.229C441.536,408.658,438.126,409.287,434.934,409.282z"/>
	<path style="fill:#F22443;" d="M487.873,590.892c9.902-4.215,9.902-20.664,9.902-20.664l-32.202-29.472l-22.137-16.011
		c0,0-29.667-19.979-40.938-6.988c-11.271,12.991,9.799,31.656,9.799,31.656l27.965,20.779
		C440.261,570.193,477.971,595.108,487.873,590.892z"/>
	<g>
		<defs>
			<path id="SVGID_00000129889726106610641850000018440303280211256251_" d="M492.102,689.371l17.823,77.676
				c0.337,1.469-0.471,2.96-1.893,3.46c-6.917,2.432-28.784,8.729-70.846,9.232c-43.275,0.517-72.947-6.154-81.844-8.456
				c-1.561-0.404-2.51-1.974-2.146-3.545l18.192-78.374c0.312-1.345,1.511-2.297,2.892-2.297h114.929
				C490.593,687.066,491.793,688.022,492.102,689.371z"/>
		</defs>
		<clipPath id="SVGID_00000108994138309634371520000014095941363613305515_">
			<use xlink:href="#SVGID_00000129889726106610641850000018440303280211256251_"  style="overflow:visible;"/>
		</clipPath>
		<path style="clip-path:url(#SVGID_00000108994138309634371520000014095941363613305515_);fill:#4D2F75;" d="M492.102,689.371
			l17.823,77.676c0.337,1.469-0.471,2.96-1.893,3.46c-6.917,2.432-28.784,8.729-70.846,9.232
			c-43.275,0.517-72.947-6.154-81.844-8.456c-1.561-0.404-2.51-1.974-2.146-3.545l18.192-78.374
			c0.312-1.345,1.511-2.297,2.892-2.297h114.929C490.593,687.066,491.793,688.022,492.102,689.371z"/>
		<path style="opacity:0.3;clip-path:url(#SVGID_00000108994138309634371520000014095941363613305515_);fill:#401E55;" d="
			M365.95,700.89c0,0,46.878,20.355,132.643,14.347l-3.557-35.348l-128.112,4.737L365.95,700.89z"/>
	</g>
	<path style="fill:#F22443;" d="M448.137,481.215c0,0,11.757,3.658,18.385,14.742c6.628,11.084,21.831,33.204,24.823,43.968
		c2.532,9.108,3.112,29.656-16.53,34.789c0,0,8.849,58.781,21.345,109.831c3.975,16.238-88.311,15.172-109.367,11.815
		c-21.055-3.358-20.729-10.008-19.87-11.733c4.419-33.216,24.853-62.729,21.231-89.827c-5.267-39.408-30.224-62.401-31.457-79.26
		c-1.234-16.859,1.852-33.581,35.494-34.419c0,0,9.557,14.912,19.98,16.986C425.194,502.187,441.024,502.385,448.137,481.215z"/>
	<path style="fill:#F8B182;" d="M459.86,480.848l1.429,4.238l-14.016,6.59l-1.905-5.002c0,0-5.541,0.18-9.493-5.274
		c-3.952-5.453-10.937-38.632,2.413-41.656C451.637,436.72,463.084,477.386,459.86,480.848z"/>
	<path style="fill:#FFBC8B;" d="M422.946,488.837c0,0,0.312,3.873,0.329,10.265c5.007,1.208,10.1,1.771,15.227,1.964
		c0.25-8.31,0.063-12.129,0.063-12.129s5.22-1.867,6.895-8.391c1.674-6.524-4.009-39.949-17.537-37.862
		C414.394,444.772,418.676,486.802,422.946,488.837z"/>
	<path style="opacity:0.1;fill:#B50D2D;" d="M476.84,588.712l-1.357-9.242l-25.955-86.605l-5.934,2.873l-13.495,47.248
		l-19.069,38.949l-29.301-12.362c5.21,15.564,7.712,27.625,6.752,35.193c12.685,3.501,33.467,2.653,39.445,0.21
		c31.779-13.603,22.219-67.967,22.219-67.967C460.292,580.803,476.84,588.712,476.84,588.712z"/>
	<path style="fill:#F8354F;" d="M361.35,493.24c-15.761,6.885-4.758,32.795-4.758,32.795l16.319,30.781
		c10.88,15.758,18.963,28.945,36.688,41.356c0,0,13.675-12.685,21.926-20.937c-12.113-16.567-23.108-36.119-23.108-36.119
		l-13.107-23.972C395.311,517.145,377.111,486.355,361.35,493.24z"/>
	<path style="opacity:0.5;fill:#F22443;" d="M402.325,529.972c0,0-8.927,26.198,1.327,54.492l6.738-39.924L402.325,529.972z"/>
	<path style="fill:#F8354F;" d="M414.986,599.918c20.355,2.282,24.152-30.995,25.308-41.131c3.259-28.587,4.442-65.921,4.442-65.921
		l-25.021-1.19c0,0-8.461,44.676-11.144,64.895C407.733,562.89,394.631,597.636,414.986,599.918z"/>
	<path style="fill:#F65D31;" d="M477.296,373.911c-0.466,1.396-6.492-2.791-16.212-3.278c-9.886-0.496-15.679,3.477-16.21-0.315
		c-0.634-4.529,12.69-5.258,18.501-4.198C469.185,367.18,477.719,372.641,477.296,373.911z"/>
	<path style="fill:#F65D31;" d="M385.371,375.377c0.576,1.355,6.333-3.1,15.983-4.363c9.815-1.285,15.822,2.01,16.048-1.812
		c0.27-4.565-12.985-4.024-18.692-2.503C393.003,368.22,384.848,374.145,385.371,375.377z"/>
	<path style="fill:#FD423B;" d="M356.051,410.783c-0.006,3.297,1.89,5.972,4.234,5.976c2.344,0.004,4.249-2.665,4.255-5.962
		c0.006-3.297-1.89-5.972-4.234-5.976C357.962,404.817,356.057,407.486,356.051,410.783z"/>
	<path style="fill:#FD423B;" d="M488.383,407.001c-0.667,3.229,0.654,6.23,2.95,6.704c2.296,0.474,4.697-1.759,5.364-4.988
		c0.667-3.229-0.654-6.23-2.95-6.704C491.451,401.539,489.049,403.772,488.383,407.001z"/>
	<path style="fill:#FF8661;" d="M350.695,386.642c0,0,2.804-5.172,7.756-2.486c1.494,0.908,2.684,2.972,3.168,5.594
		c0,0-3.52,3.22-0.665,8.333c0,0-4.43,2.278-4.957,6.04c0,0-1.135-1.946-0.666-3.964c0.469-2.018,2.696-2.635,2.696-2.635
		s-2.401-2.437-1.893-4.662c0.508-2.225,2.683-2.894,2.683-2.894s0.143-2.795-2.02-4.248
		C354.633,384.268,350.695,386.642,350.695,386.642z"/>
	<path style="fill:#F8354F;" d="M461.732,553.646c2.192,7.376,12.159,34.677,27.271,30.359c15.112-4.318,6.838-33.635,3.423-42.487
		c-10.454-27.098-25.189-59.231-25.189-59.231l-22.502,10.58C444.736,492.866,455.274,531.915,461.732,553.646z"/>
	<path style="fill:#712E28;" d="M469.534,388.6c-0.827,0-1.635-0.416-2.102-1.172c-0.107-0.169-2.874-4.388-7.652-4.327
		c-4.854,0.092-7.209,3.66-7.232,3.695c-0.72,1.158-2.241,1.512-3.398,0.791c-1.157-0.72-1.511-2.241-0.791-3.398
		c0.149-0.24,3.745-5.879,11.328-6.022c7.663-0.173,11.771,6.389,11.943,6.668c0.716,1.159,0.356,2.68-0.803,3.395
		C470.423,388.481,469.976,388.6,469.534,388.6z"/>
	<path style="fill:#712E28;" d="M416.066,390.435c-0.827,0-1.635-0.416-2.102-1.172c-0.106-0.168-2.797-4.328-7.502-4.328
		c-0.05,0-0.1,0.001-0.15,0.001c-4.84,0.092-7.147,3.566-7.243,3.714c-0.735,1.135-2.254,1.478-3.4,0.75
		c-1.143-0.726-1.493-2.227-0.778-3.376c0.149-0.24,3.745-5.879,11.329-6.022c7.62-0.171,11.771,6.389,11.943,6.667
		c0.716,1.16,0.357,2.68-0.803,3.396C416.956,390.316,416.508,390.435,416.066,390.435z"/>
</g>
<g id="_x33_">
	<path style="fill:#49ABC3;" d="M925.097,346.224l1.232-18.415c0.125-1.868-1.351-3.455-3.223-3.465l-24.713-0.141
		c-1.787-0.01-3.23-1.462-3.23-3.248v-67.519c0-1.794,1.454-3.248,3.249-3.248h93.797c1.812,0,3.274,1.483,3.248,3.295
		l-0.971,68.048c-0.025,1.783-1.484,3.212-3.267,3.202l-36.902-0.21c-0.916-0.005-1.792,0.377-2.411,1.052l-21.176,23.065
		C928.655,350.898,924.892,349.286,925.097,346.224z"/>
	<path style="fill:#FFFFFF;" d="M925.086,290.892c0.049-0.767,0.104-1.346,0.172-1.732c0.065-0.381,0.197-0.631,0.388-0.734
		c0.194-0.103,0.484-0.091,0.867,0.036c0.386,0.133,0.917,0.371,1.601,0.714c1.107,0.523,2.215,1.062,3.327,1.627
		c1.106,0.56,2.215,1.125,3.324,1.684c2.559,1.257,5.165,2.029,7.816,2.321c2.648,0.292,5.366,0.213,8.149-0.241
		c2.655-0.455,5.139-1.213,7.455-2.265c2.314-1.057,4.463-2.522,6.439-4.391c0.302-0.254,0.752-0.534,1.352-0.828
		c0.471-0.211,0.792-0.251,0.964-0.125c0.169,0.131,0.274,0.43,0.316,0.9c-0.005,0.903-0.01,1.801-0.016,2.699
		c-0.005,0.898-0.034,1.796-0.081,2.693c-0.043,0.214-0.13,0.438-0.26,0.672c-0.129,0.234-0.282,0.437-0.452,0.603
		c-1.549,1.62-3.236,3.01-5.06,4.174c-1.826,1.169-3.828,2.02-6.013,2.566c-2.4,0.587-4.807,1.033-7.226,1.337
		c-2.419,0.31-4.888,0.28-7.408-0.073c-1.753-0.224-3.44-0.641-5.063-1.246c-1.623-0.609-3.18-1.344-4.671-2.209
		c-0.853-0.48-1.673-1.007-2.46-1.586c-0.788-0.584-1.609-1.111-2.46-1.586c-0.767-0.479-1.15-1.165-1.145-2.063l0.013-2.245
		c0-0.083,0.024-0.172,0.067-0.255c0-0.084,0.011-0.162,0.033-0.224C925.077,291.054,925.086,290.975,925.086,290.892z
		 M951.153,276.98c0.004-0.726,0.139-1.409,0.398-2.049c0.259-0.641,0.605-1.213,1.036-1.727c0.431-0.509,0.924-0.924,1.482-1.239
		c0.558-0.321,1.136-0.479,1.736-0.476c0.642,0.004,1.271,0.148,1.89,0.428c0.617,0.28,1.171,0.659,1.662,1.132
		c0.488,0.473,0.869,1.023,1.144,1.646c0.276,0.618,0.411,1.25,0.407,1.892c-0.009,1.54-0.497,2.822-1.466,3.84
		c-0.969,1.023-2.136,1.528-3.504,1.52c-1.412-0.05-2.576-0.547-3.49-1.492C951.535,279.505,951.103,278.348,951.153,276.98z
		 M932.04,276.579c0.004-0.726,0.139-1.409,0.398-2.05c0.26-0.641,0.605-1.213,1.036-1.728c0.431-0.509,0.924-0.924,1.482-1.239
		c0.558-0.32,1.136-0.479,1.736-0.475c0.642,0.004,1.271,0.148,1.89,0.428c0.617,0.28,1.171,0.659,1.662,1.132
		c0.488,0.473,0.868,1.023,1.144,1.646c0.276,0.617,0.41,1.25,0.407,1.892c-0.009,1.54-0.496,2.822-1.466,3.839
		c-0.969,1.023-2.136,1.528-3.504,1.52c-1.412-0.05-2.576-0.547-3.49-1.492C932.423,279.103,931.991,277.947,932.04,276.579z"/>
</g>
<g id="_x33__2_">
	<path style="fill:#B1BB1C;" d="M647.139,610.381l-1.232,18.415c-0.125,1.868,1.351,3.455,3.223,3.465l24.713,0.141
		c1.787,0.01,3.23,1.462,3.23,3.248v67.519c0,1.794-1.454,3.248-3.248,3.248h-93.798c-1.812,0-3.274-1.483-3.248-3.295l0.971-68.047
		c0.025-1.783,1.483-3.212,3.267-3.202l36.902,0.21c0.916,0.005,1.792-0.376,2.411-1.051l21.176-23.065
		C643.58,605.707,647.344,607.319,647.139,610.381z"/>
	<path style="fill:#FFFFFF;" d="M617.757,648.646c14.173-7.086,13.311,14.517,13.311,14.517s5.758-18.484,15.6-9.842
		c9.842,8.641-11.442,16.346-11.442,16.346s21.161,1.066,13.656,12.812c-7.505,11.745-19.069-6.028-19.069-6.028
		s4.848,20.042-9.879,15.803c-14.727-4.239,2.559-19.494,2.559-19.494s-19.746,13.847-19.992-1.443
		c-0.246-15.289,20.423-3.971,20.423-3.971S603.732,655.659,617.757,648.646z"/>
	<path style="fill:#B1BB1C;" d="M624.412,664.111c-10.67,6.613,0.256,19.365,7.313,14.327
		C638.782,673.399,635.081,657.498,624.412,664.111z"/>
</g>
<g id="_x33__1_">
	<path style="fill:#FD423B;" d="M304.846,500.665v-13.638c0-0.678,0.269-1.329,0.748-1.81l23.514-23.601
		c1.682-1.688,0.353-4.557-2.023-4.365l-19.469,1.571c-1.492,0.121-2.77-1.058-2.77-2.556v-24.487c0-1.416-1.148-2.564-2.564-2.564
		h-95.176c-1.43,0-2.584,1.17-2.564,2.601l0.991,69.42c0.02,1.407,1.171,2.535,2.578,2.527l94.186-0.536
		C303.707,503.221,304.846,502.076,304.846,500.665z"/>
	<path style="fill:#FFFFFF;" d="M255.527,454.738c1.339,0.233,12.571-16.119,21.389-4.221c8.332,11.242-16.605,32.963-21.484,32.853
		c-4.879-0.109-29.458-17.34-21.359-30.827C241.91,439.493,254.188,454.504,255.527,454.738z"/>
</g>
<radialGradient id="SVGID_00000135686943407213089980000011842199405386420918_" cx="490.5718" cy="-512.3691" r="33.9297" gradientTransform="matrix(0.9553 0.2648 -0.3304 1.0121 -119.4018 667.1704)" gradientUnits="userSpaceOnUse">
	<stop  offset="0" style="stop-color:#FF603B"/>
	<stop  offset="1" style="stop-color:#FF323D"/>
</radialGradient>
<path style="fill:url(#SVGID_00000135686943407213089980000011842199405386420918_);" d="M533.59,274.83
	c1.658,0.776,22.98-15.461,29.692,2.512c6.342,16.984-35.086,34.919-41.424,33.014c-6.338-1.905-31.508-32.216-15.445-46.03
	C521.956,250.958,531.933,274.054,533.59,274.83z"/>
<radialGradient id="SVGID_00000018215177799997280080000017425613832950924197_" cx="432.9655" cy="216.2609" r="23.7214" gradientTransform="matrix(0.9957 0.0736 -0.0943 0.9419 52.2738 -23.98)" gradientUnits="userSpaceOnUse">
	<stop  offset="0" style="stop-color:#FF603B"/>
	<stop  offset="1" style="stop-color:#FF323D"/>
</radialGradient>
<path style="fill:url(#SVGID_00000018215177799997280080000017425613832950924197_);" d="M469.745,206.137
	c1.244,0.302,13.316-13.525,20.58-2.279c6.864,10.627-18.634,28.295-23.232,27.856c-4.598-0.439-26.272-17.551-17.416-29.037
	C458.247,191.564,468.5,205.835,469.745,206.137z"/>
</svg>
