<?xml version="1.0" encoding="utf-8"?>
<!-- Generator: Adobe Illustrator 27.5.0, SVG Export Plug-In . SVG Version: 6.00 Build 0)  -->
<svg version="1.1" xmlns="http://www.w3.org/2000/svg" xmlns:xlink="http://www.w3.org/1999/xlink" x="0px" y="0px"
	 viewBox="0 0 450 450" style="enable-background:new 0 0 450 450;" xml:space="preserve">
<g id="Layer_15">
	<g>
		<linearGradient id="SVGID_1_" gradientUnits="userSpaceOnUse" x1="255.134" y1="212.9383" x2="221.7682" y2="218.9422">
			<stop  offset="0.0051" style="stop-color:#FFC257"/>
			<stop  offset="0.9898" style="stop-color:#FFD965"/>
		</linearGradient>
		<path style="fill:url(#SVGID_1_);" d="M263.134,216.679c0,0-19.343,7.086-25.346,8.169c0,0-0.527-0.86-1.321-2.122
			c-0.104-0.165-0.215-0.338-0.326-0.518c-2.089-3.299-5.547-8.598-6.62-9.27c-0.227-0.142-0.175-0.325,0.091-0.537
			c1.578-1.284,10.751-3.667,13.786-4.679c3.308-1.103,7.904-2.764,8.498-2.979c0.044-0.016,0.065-0.023,0.065-0.023
			L263.134,216.679z"/>
		
			<linearGradient id="SVGID_00000137126720377447920270000016472664016533914017_" gradientUnits="userSpaceOnUse" x1="298.1628" y1="107.8439" x2="305.5119" y2="113.8806">
			<stop  offset="0" style="stop-color:#7D431B"/>
			<stop  offset="0.9949" style="stop-color:#96431B"/>
		</linearGradient>
		<path style="fill:url(#SVGID_00000137126720377447920270000016472664016533914017_);" d="M306.127,128.602
			c-3.571,4.258-8.746,4.587-12.07,2.673c-0.507-0.291-0.971-0.636-1.379-1.025c-0.029-0.028-0.059-0.053-0.086-0.083
			c-0.132-0.13-0.256-0.266-0.376-0.406c-0.04-0.045-0.077-0.092-0.112-0.14c-0.561-0.693-0.982-1.514-1.258-2.382
			c-0.777-2.412-0.453-5.179,1.103-6.561l0.002-0.002c0.654-0.582,1.526-0.919,2.627-0.882c3.041,0.104,4.015,2.781,3.836,4.673
			c-0.035,0.354-0.11,0.681-0.219,0.958c-0.144,0.368-0.35,0.651-0.602,0.795c-0.069,0.039-0.142,0.067-0.219,0.085
			c-0.055,0.014-0.114,0.02-0.174,0.02c-1.836,0-1.968-2.494-1.704-3.675c0.262-1.181-3.02-0.788-3.676,0.903
			c-0.655,1.691,1.707,6.97,7.219,5.047c0.732-0.256,1.415-0.749,2.043-1.413c0.102-0.108,0.205-0.223,0.306-0.341
			c0.629-0.74,1.207-1.649,1.727-2.653c1.939-3.73,3.125-8.763,3.635-11.271c0.197-0.963,0.294-1.553,0.294-1.553
			s-1.181-2.104-3.411-8.14c-0.904-2.445-1.044-4.655-0.792-6.492c0.37-2.699,1.595-4.593,2.498-5.232
			c0.415-0.295,0.903-0.502,1.413-0.638c0.099-0.028,0.197-0.051,0.298-0.073c1.986-0.425,4.138,0.142,3.537,0.71
			c-0.787,0.746-2.23,6.081,0.92,14.075C314.656,113.576,310.457,123.439,306.127,128.602z"/>
		<path style="opacity:0.5;fill:#F9BA53;" d="M263.134,216.679c0,0-19.343,7.086-25.346,8.169c0,0-0.527-0.86-1.321-2.122
			c14.543-3.286,16.078-12.714,15.429-17.982c0.044-0.016,0.065-0.023,0.065-0.023L263.134,216.679z"/>
		<path style="opacity:0.3;fill:#7D431B;" d="M306.127,128.602c-4.331,5.166-11.024,4.549-13.911,1.16
			c-2.215-2.6-2.421-7.169-0.267-9.083c-1.007,2.106-0.125,5.453,0.725,7.716c1.248,3.317,6.299,3.508,9.909,1.699
			c2.236-1.12,1.399-3.785,0.532-5.899c1.939-3.73,3.125-8.763,3.635-11.271c1.641-3.563,2.734-7.183,1.164-8.512
			c-2.343-1.984-4.156-5.364-5.073-7.673c0.37-2.699,1.595-4.593,2.498-5.232c2.099-1.486,6.036-0.744,5.248,0
			c-0.787,0.746-2.23,6.081,0.92,14.075C314.656,113.576,310.457,123.439,306.127,128.602z"/>
		
			<linearGradient id="SVGID_00000056408961956694345760000011131671071844586175_" gradientUnits="userSpaceOnUse" x1="267.5248" y1="193.2355" x2="290.7525" y2="195.204">
			<stop  offset="0" style="stop-color:#F9C3AC"/>
			<stop  offset="1" style="stop-color:#F9A193"/>
		</linearGradient>
		<path style="fill:url(#SVGID_00000056408961956694345760000011131671071844586175_);" d="M310.963,190.105
			c0,0.002,0,0.004,0,0.004c-1.33,5.518-6.936,14.037-8.905,15.35c-1.968,1.313-6.824,2.624-17.977,5.25
			c-11.155,2.624-18.374,4.198-18.374,4.198c-0.655,1.049-3.543,0.92-3.543,0.92l-1.836-1.974l-3.17-3.41l-0.242-0.259
			c-3.539-0.262-6.557,0.653-6.822,0.002l-0.002-0.002c-0.262-0.656,3.411-2.23,6.167-3.266c2.756-1.033,5.775,1.691,5.775,1.691
			c1.443-0.525,12.334-5.38,18.896-8.793c6.562-3.411,14.829-7.61,14.829-7.61c0.595-3.268,2.159-12.137,3.016-16.647
			c0.277-1.466,0.48-2.472,0.549-2.673c1.713,1.246,6.169,4.443,7.327,4.815C306.65,177.7,309.402,183.515,310.963,190.105z"/>
		
			<linearGradient id="SVGID_00000084503495099634402820000010648461986116844425_" gradientUnits="userSpaceOnUse" x1="250.0767" y1="181.1144" x2="310.9629" y2="181.1144">
			<stop  offset="0.0051" style="stop-color:#CB2000"/>
			<stop  offset="1" style="stop-color:#D32600"/>
		</linearGradient>
		<path style="fill:url(#SVGID_00000084503495099634402820000010648461986116844425_);" d="M306.651,174.357
			c-4.33-3.936-7.327-1.474-7.328-1.473c1.712,1.247,6.169,4.444,7.327,4.815c0,0,2.751,5.815,4.313,12.405
			C310.963,189.926,310.948,178.264,306.651,174.357z"/>
		
			<linearGradient id="SVGID_00000004510113996193892260000000742591139644078471_" gradientUnits="userSpaceOnUse" x1="310.5965" y1="275.4232" x2="382.0512" y2="373.2552">
			<stop  offset="0" style="stop-color:#3AA5A9"/>
			<stop  offset="1" style="stop-color:#18A0A9"/>
		</linearGradient>
		<path style="fill:url(#SVGID_00000004510113996193892260000000742591139644078471_);" d="M385.498,389.474
			c-0.068,0.533-0.56,1.006-1.226,1.411c-1.661,1.012-4.41,1.595-4.41,1.595c-0.727-2.919-3.154-10.066-5.99-18.126
			c-0.002-0.002-0.002-0.004-0.002-0.005c-3.787-10.762-8.305-23.14-10.48-29.216c-1.775-4.959-5.444-14.496-9.163-24.132
			c0,0,0,0-0.002-0.002c-4.248-11.021-8.563-22.171-10.173-26.749c-3.018-8.58-13.386-42.73-13.386-42.73s-0.004,0.046-0.012,0.132
			c0,0,0,0.002,0,0.005c-0.167,1.909-2.04,23.478-2.415,31.753c-0.394,8.66-0.853,25.064-0.723,25.589
			c0.132,0.526,2.37,6.475,4.201,16.403c2.275,12.349-11.418,59.841-11.682,60.234c-0.121,0.184-1.576-0.115-3.098-0.487
			c-1.752-0.43-3.595-0.955-3.595-0.955s-0.523-19.816-0.787-32.415c-0.12-5.712-0.562-13.098-1.067-20.186
			c-0.607-8.543-1.303-16.656-1.63-20.888c-0.596-7.744-1.634-26.509-1.896-42.782c-0.169-10.49,1.353-24.524,2.525-33.456
			c0.219-1.665,0.426-3.155,0.607-4.409c0.353-2.453,0.609-4.014,0.672-4.26c0,0,6.3,3.02,14.438,2.232
			c8.135-0.787,19.814-8.925,19.814-8.925s-0.046-0.116-0.127-0.329c-0.01-0.025-0.02-0.053-0.031-0.083
			c0.014,0.027,0.03,0.053,0.044,0.081c0.702,1.288,1.384,2.671,2.041,4.134c0.394,0.874,0.781,1.778,1.159,2.705
			c5.541,13.596,9.266,32.22,10.264,42.419c1.144,11.689,2.362,36.399,2.362,36.399s16.83,11.764,19.196,40.131
			C382.18,359.583,385.666,388.187,385.498,389.474z"/>
		<path style="fill:#703913;" d="M308.365,120.339c-0.782,2.697-2.65,4.966-4.563,6.964c-1.021,1.067-2.108,2.075-3.277,2.978
			c-0.965,0.746-2.031,1.63-3.291,1.752c-0.501,0.047-0.995-0.148-1.435-0.362c-0.101-0.049-0.198-0.096-0.299-0.146
			c-0.49-0.01-0.978-0.09-1.442-0.25c-0.494-0.165-0.965-0.421-1.393-0.775c-1-0.829-1.582-2.008-1.818-3.26
			c-0.126-0.662-0.155-1.344-0.099-2.008c0.14-1.63,0.702-3.579,2.175-4.504c1.461-0.919,3.634-0.565,4.668,0.838
			c0.604,0.819,0.801,1.856,0.824,2.902c-0.035,0.354-0.11,0.681-0.219,0.958c0.093-1.645-0.064-3.535-1.48-4.441
			c-0.912-0.585-2.244-0.786-3.252-0.327c-0.923,0.419-1.566,1.246-1.948,2.169c-0.781,1.881-0.893,4.281,0.126,6.096
			c0.136,0.242,0.291,0.476,0.463,0.697c0.035,0.047,0.072,0.094,0.112,0.14c0.116,0.142,0.241,0.28,0.376,0.406
			c0.027,0.029,0.057,0.055,0.086,0.083c0.416,0.38,0.896,0.685,1.436,0.868c0.32,0.11,0.645,0.175,0.973,0.207
			c-0.294-0.144-0.585-0.293-0.869-0.461c-0.948-0.563-1.867-1.275-2.42-2.252c-0.98-1.728-1.182-4.236,0.139-5.844
			c1.096-1.331,3.166-1.788,4.459-0.496c1.01,1.008,1.434,2.545,1.199,3.951c-0.069,0.039-0.142,0.067-0.219,0.085
			c0.287-1.516-0.19-3.346-1.496-4.207c-1.88-1.236-4.191,0.482-4.57,2.443c-0.227,1.168-0.067,2.514,0.456,3.588
			c0.573,1.173,1.566,2.012,2.687,2.64c0.347,0.195,0.707,0.395,1.075,0.575c0.736,0,1.473-0.171,2.173-0.455
			c1.717-0.695,2.831-2.012,3.384-3.703c0.102-0.108,0.205-0.223,0.306-0.341c-0.201,0.774-0.498,1.518-0.957,2.171
			c-1.016,1.447-2.773,2.402-4.531,2.5c0.138,0.059,0.277,0.114,0.417,0.165c0.717,0.252,1.382,0.138,2.06-0.191
			c1.279-0.624,2.442-1.647,3.494-2.594c1.147-1.029,2.229-2.138,3.208-3.327c0.925-1.121,1.903-2.325,2.504-3.659
			c1.025-2.283,1.228-4.766,0.897-7.224c-0.602-4.486-2.51-8.655-3.413-13.075c-0.415-2.035-0.644-4.167-0.26-6.228
			c0.308-1.659,0.979-3.171,1.944-4.518c0.099-0.028,0.197-0.051,0.298-0.073c-1.626,2.199-2.368,4.817-2.221,7.598
			c0.163,3.065,1.12,6.021,2.019,8.933C308.123,111.463,309.619,116.015,308.365,120.339z"/>
		<path style="opacity:0.5;fill:#34B8B3;" d="M311.488,331.594c-0.607-8.543-1.303-16.656-1.63-20.888
			c-0.596-7.744-1.634-26.509-1.896-42.782c-0.169-10.49,1.353-24.524,2.525-33.456c0,0-2.004,46.733,0,66.636
			C311.627,312.408,311.666,323.832,311.488,331.594z"/>
		<g style="opacity:0.3;">
			
				<linearGradient id="SVGID_00000065038822566832347960000017527505671082497669_" gradientUnits="userSpaceOnUse" x1="330.8022" y1="249.4824" x2="385.9187" y2="338.4562">
				<stop  offset="0" style="stop-color:#3AA5A9"/>
				<stop  offset="1" style="stop-color:#18A0A9"/>
			</linearGradient>
			<path style="fill:url(#SVGID_00000065038822566832347960000017527505671082497669_);" d="M380.928,344.564
				c-2.366-28.367-19.196-40.131-19.196-40.131s-1.219-24.71-2.362-36.399c-0.998-10.199-4.723-28.823-10.264-42.419
				c-0.378-0.927-0.766-1.831-1.159-2.705c-0.657-1.462-1.339-2.846-2.041-4.134l-0.013,0.002c0.081,0.213,0.127,0.329,0.127,0.329
				s-11.68,8.138-19.814,8.925c-8.138,0.787-14.438-2.232-14.438-2.232c-0.063,0.246-0.318,1.807-0.672,4.26
				c5.365,1.657,19.052,3.819,33.199-2.108c7.401,19.616,17.276,55.629,14.061,77.638c0,0-1.445,3.264-3.61,3.606
				c2.473,0.122,10.76,1.591,16.313,15.356c6.281,15.574,12.484,50.346,13.214,66.334c0.666-0.405,1.158-0.878,1.226-1.411
				C385.666,388.187,382.18,359.583,380.928,344.564z"/>
			
				<linearGradient id="SVGID_00000116939853468823885590000012485531009397564085_" gradientUnits="userSpaceOnUse" x1="295.4554" y1="271.3791" x2="350.5718" y2="360.3528">
				<stop  offset="0" style="stop-color:#3AA5A9"/>
				<stop  offset="1" style="stop-color:#18A0A9"/>
			</linearGradient>
			<path style="fill:url(#SVGID_00000116939853468823885590000012485531009397564085_);" d="M327.516,308.999
				c-0.13-0.524,0.329-16.929,0.723-25.589c0.375-8.275,2.248-29.844,2.415-31.753c0-0.003,0-0.005,0-0.005
				c-0.323-2.104-0.531-3.403-0.531-3.403c-1.107,8.326-8.773,55.239-7.396,62.719c1.378,7.48,2.361,27.877,0.787,39.923
				c-1.366,10.446-3.473,23.982-6.576,34.259c1.522,0.372,2.977,0.671,3.098,0.487c0.264-0.393,13.957-47.886,11.682-60.234
				C329.886,315.474,327.647,309.525,327.516,308.999z"/>
		</g>
		
			<linearGradient id="SVGID_00000076573912855611432070000012791123337986497962_" gradientUnits="userSpaceOnUse" x1="350.2976" y1="230.7713" x2="315.653" y2="146.5217">
			<stop  offset="0.0051" style="stop-color:#B61800"/>
			<stop  offset="1" style="stop-color:#D32600"/>
		</linearGradient>
		<path style="fill:url(#SVGID_00000076573912855611432070000012791123337986497962_);" d="M364.654,180.896
			c-0.419,0.323-0.842,0.626-1.266,0.915c-5.923,4.044-12.039,4.909-14.493,5.094c-0.715,0.053-1.12,0.049-1.12,0.049
			s-0.969-2.888-1.362-4.199c-0.374-1.244-1.101,2.094-1.175,2.449c0.014-0.103,0.021-0.305-0.662,2.598
			c-0.787,3.343-4.463,17-3.149,19.892c1.14,2.51,3.764,9.263,4.435,10.999c0.05,0.128,0.304,0.786,0.553,1.427
			c-1.031,1.281-2.295,2.793-3.627,4.338c-2.941,1.78-7.311,3.831-12.665,4.583c-1.374,0.195-2.814,0.303-4.312,0.299
			c-8.175-0.023-14.043-3.543-14.043-3.543c2.121-10.468,1.162-21.999,0.16-30.102c-0.053-0.431-0.106-0.852-0.16-1.262
			c-0.185-1.447-0.469-2.905-0.805-4.331c-1.561-6.59-4.313-12.405-4.313-12.405c-1.158-0.372-5.614-3.569-7.327-4.815
			c-0.421-0.305-0.677-0.496-0.677-0.496s0-1.014,0.498-3.715c0.322-1.751,0.857-4.214,1.733-7.57
			c2.23-8.527,5.512-16.799,10.367-18.336c3.597-1.14,8.002-0.382,10.537,0.229c0.887,0.215,1.544,0.409,1.858,0.5
			c5.362,1.541,22.773,5.836,22.773,5.836c1.27,0.38,2.403,0.898,3.423,1.525c4.467,2.742,6.777,7.561,8.913,11.892
			c1.971,3.996,4.314,12.23,5.358,16.081C364.452,180.104,364.654,180.896,364.654,180.896z"/>
		<path style="opacity:0.5;fill:#AD1707;" d="M349.836,150.858c-8.399,6.51-21.96,12.705-27.438,7.228
			c-5.243-5.242-2.42-12.348-0.617-15.09c0.887,0.215,1.544,0.409,1.858,0.5c5.362,1.541,22.773,5.836,22.773,5.836
			C347.683,149.712,348.816,150.23,349.836,150.858z"/>
		
			<linearGradient id="SVGID_00000071550525002483604670000016005133075827027074_" gradientUnits="userSpaceOnUse" x1="331.2456" y1="237.9147" x2="304.77" y2="252.6781">
			<stop  offset="0.0051" style="stop-color:#FFC257"/>
			<stop  offset="0.9898" style="stop-color:#FFD965"/>
		</linearGradient>
		<path style="fill:url(#SVGID_00000071550525002483604670000016005133075827027074_);" d="M336.702,243.155
			c0,0-3.884,2.407-8.313,5.094c-4.791,2.907-10.22,6.142-12.06,7.012l-7.579-10.729c0,0,0.016-0.007,0.044-0.02
			c0.7-0.36,9.71-4.996,12.357-7.36c0.28-0.25,0.56-0.508,0.833-0.769c2.435-2.318,4.58-4.94,4.58-4.94
			c0.492,0.099,4.527,2.56,7.185,6.496C336.407,241.875,336.702,243.155,336.702,243.155z"/>
		
			<linearGradient id="SVGID_00000153682001669378546960000000175267338359362746_" gradientUnits="userSpaceOnUse" x1="326.1971" y1="160.2749" x2="336.0433" y2="140.7718">
			<stop  offset="0" style="stop-color:#F9C3AC"/>
			<stop  offset="1" style="stop-color:#F9A193"/>
		</linearGradient>
		<path style="fill:url(#SVGID_00000153682001669378546960000000175267338359362746_);" d="M346.413,149.333
			c0,0-3.623,2.353-11.285,6.901c-12.401,7.363-16.273-8.122-12.599-10.809c0.248-0.181,0.471-0.377,0.668-0.588
			c2.696-2.876,0.636-8.059,0.514-8.738c1.709,0.055,7.105-2.626,11.722-6.004c-0.482,1.39-0.756,2.957-0.698,4.727
			c0.111,3.46,1.393,6.27,3.411,8.236v0.016c0.066,0.632,2.147,2.204,4.204,3.616C344.393,148.09,346.413,149.333,346.413,149.333z"
			/>
		
			<linearGradient id="SVGID_00000129896301805125644520000002748648768414510221_" gradientUnits="userSpaceOnUse" x1="317.4188" y1="157.2215" x2="327.6545" y2="136.9468">
			<stop  offset="0" style="stop-color:#F8CBB7"/>
			<stop  offset="1" style="stop-color:#F9AFA1"/>
		</linearGradient>
		<path style="fill:url(#SVGID_00000129896301805125644520000002748648768414510221_);" d="M335.433,130.095L335.433,130.095
			c0.443-1.275,1.064-2.399,1.768-3.395l-13.489,9.399c0,0.001,0,0.001,0,0.001C325.42,136.154,330.816,133.473,335.433,130.095
			L335.433,130.095z"/>
		
			<linearGradient id="SVGID_00000001665359590366543750000012554516876328633221_" gradientUnits="userSpaceOnUse" x1="306.1867" y1="100.6204" x2="334.4671" y2="118.6648">
			<stop  offset="0" style="stop-color:#F9C3AC"/>
			<stop  offset="1" style="stop-color:#F9A193"/>
		</linearGradient>
		<path style="fill:url(#SVGID_00000001665359590366543750000012554516876328633221_);" d="M349.432,106.239
			c-2.95-1.494-4.855,2.504-4.855,2.504c-1.857-7.783-12.368-16.444-13.605-18.332c-5.738-1.878-13.418-2.945-20.252,0.222
			c-2.882,1.334-5.25,5.964-3.938,10.986c1.313,5.023,2.757,7.931-1.181,10.413c-0.334,0.211-0.64,0.449-0.913,0.711
			c-2.047,1.949-2.411,5.236-0.692,8.826c0.765,1.601,1.944,3.26,3.574,4.89c5.773,5.773,13.911,9.569,16.142,9.64l0,0
			c1.709,0.055,7.105-2.626,11.722-6.004l0,0l0,0c0.443-1.275,1.064-2.399,1.768-3.395c0.231-0.327,0.471-0.641,0.716-0.941
			c1.899-2.315,4.143-3.836,5.217-4.877c1.282-1.242,2.908-1.873,4.487-2.78c1.006-0.578,1.993-1.268,2.861-2.299
			c0.07-0.083,0.137-0.169,0.202-0.256C352.689,112.815,352.291,107.687,349.432,106.239z"/>
		
			<linearGradient id="SVGID_00000126283345077663790380000017965880604730747829_" gradientUnits="userSpaceOnUse" x1="326.5252" y1="127.3512" x2="351.9842" y2="115.0809">
			<stop  offset="0" style="stop-color:#7D431B"/>
			<stop  offset="0.9949" style="stop-color:#96431B"/>
		</linearGradient>
		<path style="fill:url(#SVGID_00000126283345077663790380000017965880604730747829_);" d="M360.629,130.236
			c-0.039,0.062-0.08,0.12-0.122,0.179c-0.795,1.166-1.721,2.264-2.724,3.292c-0.058,0.059-0.115,0.116-0.172,0.175
			c-0.397,0.4-0.807,0.788-1.225,1.166c-3.124,2.825-4.074,4.978-4.031,6.384c0.012,0.384,0.097,0.71,0.232,0.98v0.002
			c0.053,0.108,0.113,0.206,0.184,0.297c0.109,0.144,0.235,0.264,0.371,0.362c1.154,0.819,4.327-1.29,4.66-1.514
			c0.018-0.014,0.027-0.02,0.027-0.02c1.378,2.856,0.525,7.951-7.533,8.277c-0.738,0.03-3.089,0.201-6.77-1.956h-0.002
			c-0.077-0.046-0.153-0.091-0.23-0.138c-1.221-0.736-2.583-1.725-4.077-3.055c-0.07-0.063-0.142-0.126-0.212-0.191
			c-0.356-0.321-0.719-0.664-1.089-1.024c-1.065-1.037-1.86-2.419-2.392-4.002c-0.043-0.128-0.085-0.258-0.124-0.39
			c-0.308-1.012-0.508-2.098-0.607-3.222c-0.029-0.337-0.049-0.675-0.06-1.018c-0.058-1.77,0.216-3.337,0.698-4.727
			c0.443-1.275,1.064-2.399,1.768-3.395c0.23-0.327,0.471-0.642,0.717-0.941c1.898-2.315,4.142-3.836,5.216-4.877
			c1.013-0.98,2.236-1.579,3.484-2.232c0.091-0.049,0.182-0.097,0.273-0.146c0.242-0.13,0.486-0.262,0.729-0.402
			c1.006-0.579,1.994-1.268,2.862-2.299c0.069-0.083,0.138-0.169,0.201-0.256c0.462-0.632,0.799-1.39,1.003-2.203
			c0.688-2.703-0.057-5.992-2.254-7.104c-1.047-0.529-1.96-0.368-2.706,0.059c-0.055,0.032-0.108,0.065-0.161,0.096
			c-1.258,0.815-1.988,2.349-1.988,2.349c-1.857-7.783-12.368-16.444-13.605-18.332c-0.16-0.244-0.168-0.378,0.023-0.378
			c3.895,0,8.508,2.033,12.413,4.275h0.002c0.153,0.088,0.301,0.175,0.45,0.262h0.002c2.967,1.74,5.477,3.561,6.876,4.626
			c0.138,0.106,0.268,0.205,0.384,0.297c0.002,0.001,0.002,0.001,0.002,0.001c0.514,0.396,0.802,0.632,0.802,0.632
			c2.003,2.451,4.911,6.173,7.336,10.333c0.116,0.198,0.232,0.397,0.345,0.598c1.244,2.197,2.339,4.503,3.08,6.799
			C364.182,122.475,363.021,126.658,360.629,130.236z"/>
		<g>
			<path style="fill:#703913;" d="M334.909,92.057c-0.064-0.112,0.112-0.201,0.175-0.091c1.209,2.12,3.548,3.221,5.17,4.967
				c1.867,2.008,3.809,3.858,5.123,6.301c0.532,0.986,0.982,2.012,1.349,3.065c-0.055,0.032-0.108,0.065-0.161,0.096
				c-0.327-0.947-0.727-1.872-1.199-2.766c-1.35-2.557-3.316-4.63-5.35-6.659C338.359,95.316,336.096,94.135,334.909,92.057z"/>
			<path style="fill:#703913;" d="M346.891,118.503c-0.047,0.134-0.096,0.268-0.145,0.401c-1.78,4.766-5.569,8.384-8.079,12.74
				c-1.191,2.069-2.258,4.26-2.866,6.577c-0.107,0.403-0.201,0.815-0.275,1.23c-0.043-0.128-0.085-0.258-0.124-0.39
				c0.469-2.228,1.378-4.35,2.448-6.352c1.085-2.023,2.358-3.907,3.727-5.748c1.577-2.122,3.227-4.244,4.36-6.647
				c0.258-0.547,0.486-1.102,0.681-1.665C346.708,118.599,346.799,118.552,346.891,118.503z"/>
			<path style="fill:#703913;" d="M354.379,118.129c-0.211,5.142-2.886,9.541-5.673,13.698c-1.27,1.892-2.62,3.752-3.601,5.817
				c-0.858,1.809-1.525,3.742-1.785,5.734c-0.193,1.482-0.185,3.029,0.205,4.482c-0.077-0.046-0.153-0.091-0.23-0.138
				c-0.525-2.154-0.303-4.445,0.283-6.569c0.518-1.874,1.298-3.679,2.285-5.352c1.246-2.112,2.723-4.085,4.039-6.153
				c1.375-2.163,2.66-4.421,3.441-6.874c0.725-2.271,1.01-4.658,0.75-7.023v-0.006c-0.037-0.343-0.087-0.688-0.148-1.03
				c-0.012-0.065-0.024-0.13-0.038-0.193c-0.996-5.299-4.169-9.764-7.643-13.76c-1.843-2.12-3.771-4.22-5.858-6.1
				c-0.266-0.238-2.616-2.418-2.175-2.673c0.109-0.065,0.198,0.11,0.09,0.173c0.053-0.029,0.186,0.23,0.26,0.323
				c0.132,0.163,0.268,0.323,0.41,0.478c0.328,0.36,0.667,0.711,1.016,1.051c0.897,0.876,1.824,1.716,2.698,2.614
				c2.23,2.293,4.405,4.659,6.327,7.22C352.115,107.961,354.596,112.857,354.379,118.129z"/>
			<path style="fill:#703913;" d="M357.928,120.583c-0.162,2.496-0.966,4.786-2.232,6.931c-1.226,2.08-2.728,3.992-3.877,6.12
				c-0.628,1.161-1.258,2.419-1.374,3.756c-0.126,1.438,0.173,2.968,1.065,4.14c0.314,0.411,0.677,0.705,1.078,0.882v0.002
				c0.053,0.108,0.113,0.206,0.184,0.297c-0.678-0.211-1.217-0.703-1.601-1.333c-0.649-1.069-1.004-2.27-0.953-3.527
				c0.05-1.264,0.473-2.39,1.02-3.518c1.042-2.149,2.504-4.049,3.77-6.065c1.388-2.212,2.459-4.561,2.687-7.19
				c0.507-5.854-2.22-11.23-5.708-15.74c-0.946-1.227-1.933-2.419-2.933-3.604c-0.941-1.116-1.943-2.197-2.789-3.388
				c-0.93-1.305-1.802-2.768-2.854-4.037c0.153,0.088,0.301,0.175,0.45,0.262h0.002c1.002,1.282,1.852,2.707,2.802,3.994
				c0.892,1.209,1.933,2.317,2.897,3.467c0.992,1.185,1.977,2.38,2.907,3.614C355.698,109.926,358.291,115.076,357.928,120.583z"/>
			<path style="fill:#703913;" d="M358.499,127.048c-0.291,2.012-0.903,4.064-0.771,6.116c0.012,0.181,0.029,0.362,0.056,0.543
				c-0.058,0.059-0.115,0.116-0.172,0.175c-0.254-1.482,0.022-3.031,0.289-4.49c0.516-2.819,0.922-5.679,0.864-8.553
				c-0.059-3.065-0.618-6.146-1.566-9.061c-0.973-2.988-2.421-5.692-4.063-8.362c-0.69-1.124-1.352-2.238-1.962-3.407
				c-0.138-0.264-0.282-0.542-0.436-0.813c0.138,0.106,0.268,0.205,0.384,0.297c0.002,0.001,0.002,0.001,0.002,0.001
				c0.469,0.858,0.891,1.734,1.406,2.567c1.46,2.353,2.946,4.712,3.989,7.288c1.103,2.718,1.858,5.57,2.223,8.481
				C359.127,120.908,358.944,123.989,358.499,127.048z"/>
			<path style="fill:#703913;" d="M360.629,130.236c-0.039,0.062-0.08,0.12-0.122,0.179c-0.186-0.22-0.35-0.474-0.48-0.76
				c-0.512-1.126-0.448-2.382-0.313-3.587c0.173-1.541,0.496-3.061,0.547-4.614c0.116-3.644-0.104-7.417-1-10.995
				c0.116,0.198,0.232,0.397,0.345,0.598c0.685,3.023,0.915,6.169,0.878,9.232c-0.018,1.518-0.18,2.977-0.399,4.476
				c-0.197,1.347-0.502,2.906-0.095,4.238C360.125,129.447,360.34,129.873,360.629,130.236z"/>
			<path style="fill:#703913;" d="M354.094,115.745v0.006c-0.008,1.858-0.566,3.73-1.275,5.413c-0.854,2.029-1.986,3.852-3.418,5.52
				c-3.016,3.514-6.406,6.884-8.553,11.035c-1.02,1.974-1.748,4.163-1.665,6.409c0.006,0.181,0.018,0.36,0.035,0.54
				c-0.07-0.063-0.142-0.126-0.212-0.191c-0.112-1.939,0.314-3.856,1.09-5.636c1.845-4.221,5.099-7.647,8.099-11.066
				c0.742-0.847,1.518-1.684,2.177-2.597c0.729-1.012,1.36-2.097,1.884-3.226c1.04-2.238,1.898-4.816,1.575-7.314
				c-0.008-0.061,0.033-0.103,0.078-0.114c0.052-0.014,0.107,0.006,0.115,0.071C354.072,114.975,354.094,115.361,354.094,115.745z"
				/>
		</g>
		<path style="fill:#7D431B;" d="M337.2,126.699c0.231-0.327,0.471-0.641,0.716-0.941
			C337.671,126.058,337.432,126.372,337.2,126.699L337.2,126.699z"/>
		<path style="fill:#7D431B;" d="M347.62,118.101c1.006-0.578,1.993-1.267,2.861-2.299c0.07-0.083,0.137-0.169,0.202-0.256
			c-0.065,0.088-0.132,0.173-0.202,0.256C349.613,116.834,348.626,117.523,347.62,118.101z"/>
		<path style="fill:#7D431B;" d="M335.433,130.095L335.433,130.095c0.443-1.275,1.064-2.399,1.768-3.395l0,0
			C336.496,127.695,335.876,128.82,335.433,130.095z"/>
		<path style="opacity:0.6;fill:#F9BA53;" d="M328.39,248.249c0.947-5.031-2.114-10.188-6.405-11.866
			c2.435-2.318,4.58-4.94,4.58-4.94c0.492,0.099,4.527,2.56,7.185,6.496c2.657,3.936,2.952,5.217,2.952,5.217
			S332.818,245.563,328.39,248.249z"/>
		<path style="fill:#7D431B;" d="M314.807,103.231c0.406,0.412-2.513-4.856-4.612-5.643c-2.1-0.788-3.413,1.033-3.413,1.033
			S313.382,101.787,314.807,103.231z"/>
		<path style="fill:#7D431B;" d="M324.629,100.127c1.182,0.742,10.055,1.987,12.729,1.181c0,0-1.968,2.231-7.218,1.946
			C324.892,102.968,324.629,100.127,324.629,100.127z"/>
		
			<linearGradient id="SVGID_00000011022451932787434760000009828138736631426491_" gradientUnits="userSpaceOnUse" x1="298.6488" y1="184.3586" x2="364.6542" y2="184.3586">
			<stop  offset="0.0051" style="stop-color:#CB2000"/>
			<stop  offset="1" style="stop-color:#D32600"/>
		</linearGradient>
		<path style="fill:url(#SVGID_00000011022451932787434760000009828138736631426491_);" d="M348.895,186.906
			c2.455-0.185,8.57-1.05,14.494-5.094l0,0C363.389,181.811,353.211,186.008,348.895,186.906z"/>
		
			<linearGradient id="SVGID_00000050626198290418282780000012121257149426593950_" gradientUnits="userSpaceOnUse" x1="298.6419" y1="222.2912" x2="364.6563" y2="222.2912">
			<stop  offset="0.0051" style="stop-color:#CB2000"/>
			<stop  offset="1" style="stop-color:#D32600"/>
		</linearGradient>
		<path style="fill:url(#SVGID_00000050626198290418282780000012121257149426593950_);" d="M346.415,220.122
			c-1.032,1.282-2.296,2.793-3.628,4.338c2.658-1.607,4.151-2.992,4.151-2.992S346.68,220.804,346.415,220.122z"/>
		
			<linearGradient id="SVGID_00000041257270348746693390000008633365225724147889_" gradientUnits="userSpaceOnUse" x1="325.8475" y1="222.7663" x2="358.6213" y2="203.4761">
			<stop  offset="0" style="stop-color:#F9C3AC"/>
			<stop  offset="1" style="stop-color:#F9A193"/>
		</linearGradient>
		<path style="fill:url(#SVGID_00000041257270348746693390000008633365225724147889_);" d="M370.953,212.151
			c-0.886,2.56-10.728,11.319-15.944,15.157c-5.216,3.839-15.551,9.744-16.338,10.138c-0.788,0.393-3.823,2.179-3.823,2.179
			l-0.855-1.153l-1.128-1.518l-0.087,0.027l-1.128,0.366c-2.471,0.815-4.694,0.465-5.037-0.439
			c-0.031-0.079-0.048-0.163-0.048-0.251c0-1.082,7.514-2.985,7.514-2.985c1.542-1.18,5.341-5.304,8.709-9.212
			c1.332-1.545,2.596-3.057,3.627-4.338c0.135-0.167,0.267-0.331,0.393-0.49c3.543-4.462,10.368-13.779,10.368-13.779
			c-2.126-2.905-4.286-7.23-5.868-11.118c-0.81-1.988-1.469-3.862-1.896-5.374c-0.284-1.002-0.463-1.844-0.518-2.455
			c0,0,0,0,0.003,0c5.318-0.773,7.82-1.146,14.493-5.094C366.848,190.054,371.84,209.593,370.953,212.151z"/>
		<path style="fill:#196D90;" d="M322.341,395.076c-2.624,0.919-11.688,2.897-17.985,3.423c-6.3,0.524-11.484-2.362-11.484-2.756
			c0-0.055,0.09-0.118,0.26-0.192c1.063-0.471,5.26-1.418,10.24-3.68c5.773-2.624,9.972-7.677,9.972-7.677
			c0.655,0.394,6.692,1.442,6.692,1.442c1.339,2.176,1.908,5.414,2.145,7.475C322.313,394.285,322.341,395.076,322.341,395.076z"/>
		<path style="opacity:0.3;fill:#ED9489;" d="M350.481,115.802c-2.23,2.652-5.249,3.045-7.349,5.079
			c-1.637,1.586-5.987,4.287-7.7,9.214c-4.616,3.378-10.013,6.059-11.722,6.004c-2.23-0.071-10.368-3.866-16.142-9.64
			c-1.63-1.63-2.81-3.289-3.574-4.89c0.239,0.083,0.476,0.227,0.687,0.427c1.642,1.575,12.533,10.23,17.126,10.397
			c4.594,0.167,9.645-1.998,13.648-6.919c4.002-4.921,8.465-8.667,8.136-12.732c-0.328-4.067-7.939-11.48-11.942-18.24
			c-0.407-0.689-14.243,1.968-23.165,0c0,0-1.903,4.191-0.57,8.268c1.332,4.079,2.555,9.248-3.225,9.972h-0.002
			c0.273-0.262,0.579-0.5,0.913-0.711c3.938-2.482,2.494-5.39,1.181-10.413c-1.313-5.021,1.056-9.651,3.938-10.986
			c6.834-3.168,14.514-2.1,20.252-0.222c1.237,1.888,11.748,10.549,13.605,18.332c0,0,1.905-3.998,4.855-2.504
			C352.383,107.733,352.712,113.15,350.481,115.802z"/>
		<path style="opacity:0.5;fill:#FC746D;" d="M335.029,116.9c0.616,1.08,7.48-1.597,6.397-3.171
			C340.344,112.154,333.75,114.658,335.029,116.9z"/>
		<path style="opacity:0.5;fill:#FB867B;" d="M308.16,116.107c1.082-1.083-0.787-4.333-1.969-3.151
			C305.01,114.138,307.077,117.189,308.16,116.107z"/>
		<path style="opacity:0.3;fill:#DD7972;" d="M350.285,109.632c0.26-0.959-3.938,2.703-4.331,4.63
			c-0.394,1.928,0.591,1.939,1.477,1.54c0.886-0.4,0.645-3.389,0.645-3.389S350.088,110.357,350.285,109.632z"/>
		<g>
			<path style="opacity:0.3;fill:#ED9489;" d="M325.405,111.81c0,0,1.919,2.009,5.173,1.798c3.253-0.212,6.174-2.625,6.174-2.625
				s-2.159-6.604-6.605-6.096C325.702,105.395,325.321,111.324,325.405,111.81z"/>
			<path style="fill:#FFFFFF;" d="M325.405,111.81c-0.526-0.241,1.638-4.401,4.206-4.985c2.568-0.584,7.141,4.158,7.141,4.158
				S330.74,114.246,325.405,111.81z"/>
			<path style="fill:#517D82;" d="M332.103,109.744c0,1.57-1.115,2.842-2.492,2.842c-1.377,0-2.493-1.272-2.493-2.842
				c0-1.57,1.116-2.842,2.493-2.842C330.988,106.902,332.103,108.174,332.103,109.744z"/>
			<path style="fill:#474747;" d="M325.236,111.81c0,0,0.113-5.083,3.811-5.992c4.578-1.126,7.541,3.303,7.705,5.165
				c0,0-4.078-4.142-7.141-3.726C327.118,107.596,325.236,111.81,325.236,111.81z"/>
		</g>
		<g>
			<path style="opacity:0.3;fill:#ED9489;" d="M315.184,111.679c0,0-1.043-6.714-3.568-7.77c-2.526-1.056-3.694,4.705-3.694,4.705
				s1.845,3.576,3.52,4.142C313.383,113.415,315.184,111.679,315.184,111.679z"/>
			<path style="fill:#FFFFFF;" d="M315.184,111.679c0,0-2.499-6.02-4.509-6.042c-2.009-0.023-2.754,2.978-2.754,2.978
				S311.74,113.97,315.184,111.679z"/>
			<path style="fill:#517D82;" d="M313.889,108.748c0.143,1.458-0.629,2.726-1.723,2.833c-1.094,0.107-2.096-0.989-2.238-2.446
				c-0.142-1.458,0.629-2.727,1.723-2.833C312.744,106.195,313.746,107.29,313.889,108.748z"/>
			<path style="fill:#474747;" d="M315.184,111.679c-0.215-0.49-1.155-6.374-4.022-6.809c-2.757-0.418-3.24,3.744-3.24,3.744
				s1.152-2.219,2.813-2.381C312.385,106.072,315.184,111.679,315.184,111.679z"/>
		</g>
		<path style="fill:#B61800;" d="M338.71,93.767c0.734,0.238,1.134,0.408,1.221,0.447C339.533,94.064,339.125,93.915,338.71,93.767z
			"/>
		
			<linearGradient id="SVGID_00000095322650663919556130000000714501431639532208_" gradientUnits="userSpaceOnUse" x1="354.1195" y1="89.9177" x2="311.2079" y2="73.7767">
			<stop  offset="0.0051" style="stop-color:#B61800"/>
			<stop  offset="1" style="stop-color:#D32600"/>
		</linearGradient>
		<path style="fill:url(#SVGID_00000095322650663919556130000000714501431639532208_);" d="M351.925,100.127
			c0,0-3.163-2.177-8.653-4.559c-1.027-0.447-2.138-0.899-3.325-1.349c-6.814-4.777-16.625-7.331-25.625-7.828
			c-1.354-0.077-2.69-0.106-3.996-0.089c-0.585,0.006-1.147,0.032-1.69,0.069c-0.402,0.028-0.79,0.063-1.17,0.104
			c0.553-1.994,1.297-4.559,2.106-6.968c0.982-2.927,2.058-5.624,2.984-6.777c0.882-1.095,2.025-2.294,3.555-3.325
			c0.561-0.377,1.173-0.732,1.845-1.049c1.184-0.565,2.553-1.014,4.136-1.273c1.976-0.327,4.287-0.354,7,0.059
			c6.497,0.994,12.063,3.801,15.675,7.606c1.642,1.73,2.878,3.665,3.615,5.73C350.743,87.09,351.925,100.127,351.925,100.127z"/>
		<path style="opacity:0.3;fill:#EA8378;" d="M342.35,146.689c-0.165,0.175-0.346,0.309-0.547,0.396
			c-3.316,1.439-14.08-0.854-18.605-2.248c2.696-2.876,0.636-8.059,0.514-8.738c1.709,0.055,7.105-2.626,11.722-6.004
			c-0.482,1.39-0.756,2.957-0.698,4.727c0.111,3.46,1.393,6.27,3.411,8.236v0.016C338.212,143.705,340.293,145.277,342.35,146.689z"
			/>
		<path style="fill:#B61800;" d="M338.711,93.767c0.838,0.272,1.239,0.455,1.239,0.455c-7.843-5.498-19.651-8.051-29.625-7.92
			c-1.017,0.013-1.967,0.075-2.861,0.173c-0.578,2.092-0.944,3.559-0.944,3.559C319.39,88.429,330.631,90.879,338.711,93.767z"/>
		
			<linearGradient id="SVGID_00000070083524201283192520000012770747320169570492_" gradientUnits="userSpaceOnUse" x1="316.751" y1="101.5829" x2="317.8724" y2="92.0048">
			<stop  offset="0.0051" style="stop-color:#CB2000"/>
			<stop  offset="1" style="stop-color:#D32600"/>
		</linearGradient>
		<path style="fill:url(#SVGID_00000070083524201283192520000012770747320169570492_);" d="M339.946,94.22
			c-0.047-0.022-0.45-0.199-1.236-0.453c-0.252-0.082-0.545-0.171-0.878-0.268c-3.242-0.931-10.348-2.386-22.257-1.992
			c-17.192,0.569-20.078,0.856-20.078,0.856c0.099-0.142,0.23-0.323,0.399-0.53c0.736-0.897,2.188-2.311,4.645-3.486
			c1.756-0.839,4.027-1.555,6.923-1.872c0.894-0.099,1.845-0.162,2.86-0.173c4.624-0.061,9.644,0.455,14.478,1.575
			C330.396,89.171,335.742,91.271,339.946,94.22z"/>
		<path style="fill:#C57D6D;" d="M320.431,118.902c-0.223,1.294-3.059,0.505-3.75,0.234c-0.66-0.259-1.41-0.713-1.618-1.437
			c-0.271-0.944,0.783-1.773,1.432-2.249c0.204-0.15-0.061-0.441-0.264-0.293c-5.269,3.87,4.177,6.185,4.593,3.766
			C320.866,118.673,320.473,118.655,320.431,118.902z"/>
		<path style="fill:#AD1707;" d="M343.272,95.568c0.537-2.892,2.281-14.612,1.494-20.82c1.642,1.73,2.878,3.665,3.615,5.73
			c2.362,6.612,3.544,19.649,3.544,19.649S348.762,97.95,343.272,95.568z"/>
		<path style="fill:#AD1707;" d="M337.832,93.499c-3.242-0.931-10.348-2.386-22.257-1.992c-17.192,0.569-20.078,0.856-20.078,0.856
			c0.099-0.142,0.23-0.323,0.399-0.53c2.982-0.523,8.777-1.264,18.739-1.575C326.736,89.883,333.766,92.031,337.832,93.499z"/>
		
			<linearGradient id="SVGID_00000048463473593489775910000001435289197364733333_" gradientUnits="userSpaceOnUse" x1="308.6348" y1="76.7373" x2="322.0908" y2="76.7373">
			<stop  offset="0.0051" style="stop-color:#CB2000"/>
			<stop  offset="1" style="stop-color:#D32600"/>
		</linearGradient>
		<path style="opacity:0.3;fill:url(#SVGID_00000048463473593489775910000001435289197364733333_);" d="M322.091,67.083
			c-1.531,3.673-5.477,13.196-7.77,19.309c-1.354-0.077-2.69-0.106-3.996-0.089c-0.585,0.006-1.147,0.032-1.69,0.069
			c1.299-4.191,3.919-12.517,7.476-16.966C317.664,68.36,319.614,67.488,322.091,67.083z"/>
		<path style="opacity:0.3;fill:#7D431B;" d="M344.904,123.899c-6.03,3.492-8.375,8.695-10.109,11.939
			c-0.029-0.337-0.049-0.675-0.06-1.018c-0.058-1.77,0.216-3.337,0.698-4.727c0.443-1.275,1.064-2.399,1.768-3.395
			c0.23-0.327,0.471-0.642,0.717-0.941c1.898-2.315,4.142-3.836,5.216-4.877c1.282-1.242,2.908-1.872,4.486-2.78
			c1.006-0.579,1.994-1.268,2.862-2.299c0.069-0.083,0.138-0.169,0.201-0.256c0.462-0.632,0.799-1.39,1.003-2.203
			C351.857,116.493,350.684,120.553,344.904,123.899z"/>
		<path style="opacity:0.3;fill:#7D431B;" d="M357.803,141.559c-0.711,2.142-2.577,4.366-3.975,3.797
			c-1.411-0.575-2.157-2.526-1.473-3.925c0.023,0.782,0.353,1.333,0.787,1.642C354.297,143.892,357.47,141.783,357.803,141.559z"/>
		<path style="opacity:0.5;fill:#FB867B;" d="M324.803,87.877c-12.061-1.781-20.731-0.207-24.261,0.471
			c1.756-0.839,4.027-1.555,6.923-1.872c0.894-0.099,1.845-0.162,2.86-0.173C314.949,86.242,319.969,86.757,324.803,87.877z"/>
		<path style="opacity:0.7;fill:#FB867B;" d="M317.955,68.356c-4.595,3.482-7.037,8.053-8.384,11.151
			c0.982-2.927,2.058-5.624,2.984-6.777c0.882-1.095,2.025-2.294,3.555-3.325C316.672,69.029,317.283,68.673,317.955,68.356z"/>
		<path style="opacity:0.5;fill:#AD1707;" d="M311.703,189.416c0.272,2.055,0.307,4.24,0.225,6.281
			c-0.053-0.431-0.106-0.852-0.16-1.262c-0.185-1.447-0.469-2.905-0.805-4.331c-1.561-6.59-4.313-12.405-4.313-12.405
			c-1.158-0.372-5.614-3.569-7.327-4.815c-0.421-0.305-0.677-0.496-0.677-0.496s0-1.014,0.498-3.715
			c1.594,1.325,6.326,5.189,7.439,6.466c-0.033-0.147-0.866-3.704,0.002-6.885c0.87-3.189,4.775-13.021,4.919-13.376
			c-0.119,0.439-4.246,15.681-3.555,18.005c0.703,2.358,2.475,4.327,4.148,5.606c1.64,1.254,4.89,3.242,5.016,3.319
			c-0.149-0.044-4.944-1.466-6.689-2.63C308.652,177.999,310.817,182.724,311.703,189.416z"/>
		<path style="opacity:0.5;fill:#AD1707;" d="M364.654,180.896c-0.419,0.323-0.842,0.626-1.266,0.915
			c-5.923,4.044-12.039,4.909-14.493,5.094c-0.715,0.053-1.12,0.049-1.12,0.049s-0.969-2.888-1.362-4.199
			c-0.374-1.244-1.101,2.094-1.175,2.449c0.014-0.103,0.021-0.305-0.662,2.598c-0.787,3.343-4.463,17-3.149,19.892
			c1.14,2.51,3.764,9.263,4.435,10.999c0.05,0.128,0.304,0.786,0.553,1.427c-1.031,1.281-2.295,2.793-3.627,4.338
			c-2.941,1.78-7.311,3.831-12.665,4.583c4.326-1.086,9.179-3.006,10.419-6.262c2.362-6.2,0.295-9.842-1.279-14.468
			c-1.575-4.626,1.834-12.696,3.525-18.996c1.691-6.299,2.379-8.563,2.478-9.793c0.098-1.23,0-6.84,2.361-10.974
			c2.362-4.134,4.308-4.429,4.308-4.429c-1.649,1.083-5.686,8.956-4.996,13.583c0.689,4.626,1.872,7.086,1.872,7.086
			s9.315-0.677,15.297-5.96C364.452,180.104,364.654,180.896,364.654,180.896z"/>
		<path style="opacity:0.5;fill:#AD1707;" d="M343.409,175.735c-0.703,1.87-3.754,7.503-5.624,8.624
			c-1.87,1.12-8.169,0.197-11.221-0.651c0,0,5.397,3.331,9.548,2.658C342.787,185.282,343.409,175.735,343.409,175.735z"/>
		<path style="opacity:0.3;fill:#ED9489;" d="M310.963,190.105c0,0.002,0,0.004,0,0.004c-1.33,5.518-6.936,14.037-8.905,15.35
			c-1.968,1.313-6.824,2.624-17.977,5.25c-11.155,2.624-18.374,4.198-18.374,4.198c-0.655,1.049-3.543,0.92-3.543,0.92l-1.836-1.974
			c9.214-1.183,36.05-8.539,40.288-11.281c4.46-2.886,6.429-16.142,5.248-18.897c-0.988-2.303-4.91-5.982-7.089-8.116
			c0.277-1.466,0.48-2.472,0.549-2.673c1.713,1.246,6.169,4.443,7.327,4.815C306.65,177.7,309.402,183.515,310.963,190.105z"/>
		<path style="opacity:0.3;fill:#ED9489;" d="M370.953,212.151c-0.886,2.56-10.728,11.319-15.944,15.157
			c-5.216,3.839-15.551,9.744-16.338,10.138c-0.788,0.393-3.823,2.179-3.823,2.179l-0.855-1.153c0,0,16.687-10.77,21.509-14.011
			c4.823-3.242,13.612-9.724,13.287-15.064c-0.325-5.34-7.283-22.49-7.283-22.49c-2.694,1.771-9.159,2.443-12.094,2.455
			c-0.284-1.002-0.463-1.844-0.518-2.455c0,0,0,0,0.003,0c5.318-0.773,7.82-1.146,14.493-5.094
			C366.848,190.054,371.84,209.593,370.953,212.151z"/>
		<path style="opacity:0.3;fill:#ED9489;" d="M332.777,236.981l-1.128,0.366c-2.471,0.815-4.694,0.465-5.037-0.439
			c0.454,0.26,1.12,0.396,1.921,0.242c1.033-0.197,3.909-1.089,4.232-0.493C332.816,236.751,332.816,236.862,332.777,236.981z"/>
		<path style="fill:#FFE3BB;" d="M236.141,222.208c-2.089-3.299-5.547-8.598-6.62-9.27c-0.227-0.142-0.175-0.325,0.091-0.537
			C230.898,213.807,234.191,217.792,236.141,222.208z"/>
		<path style="fill:#FFE3BB;" d="M316.329,255.261l-7.579-10.729c0,0,0.016-0.007,0.044-0.02
			C310.459,246.102,314.978,252.245,316.329,255.261z"/>
		<path style="fill:#196D90;" d="M387.62,406.56c-3.145,0.882-5.26-0.82-6.476-4.273c-0.872-2.473-1.283-5.845-1.283-9.807
			c0,0,5.133-1.595,5.637-3.006c0,0,4.341,7.002,4.816,12.099C390.538,403.949,389.918,405.916,387.62,406.56z"/>
		<path style="fill:#196D90;" d="M354.745,309.194c-0.231,0.037-0.472,0.039-0.721,0.002
			C354.024,309.196,354.282,309.172,354.745,309.194z"/>
		<path style="opacity:0.5;fill:#34B8B3;" d="M373.869,374.349c-3.787-10.762-8.305-23.14-10.48-29.216
			c-1.775-4.959-5.444-14.496-9.163-24.132c3.252,6.25,7.439,15.202,11.413,25.006C369.094,354.527,371.941,365.316,373.869,374.349
			z"/>
		<path style="fill:#0E627F;" d="M322.341,395.076c-2.624,0.919-11.688,2.897-17.985,3.423c-6.3,0.524-11.484-2.362-11.484-2.756
			c0-0.055,0.09-0.118,0.26-0.192c2.795,1.082,8.142,2.109,15.161,0.98c5.436-0.876,11.035-2.52,13.888-3.419
			C322.313,394.285,322.341,395.076,322.341,395.076z"/>
		<path style="fill:#0E627F;" d="M387.62,406.56c-3.145,0.882-5.26-0.82-6.476-4.273c1.332,1.683,2.992,2.899,5.228,2.512
			c1.827-0.317,3.304-1.474,3.941-3.226C390.538,403.949,389.918,405.916,387.62,406.56z"/>
		<path style="fill:#A83735;" d="M327.698,122.915c-2.809,1.733-7.183,4.568-10.2,1.88c-0.182-0.162-0.379,0.169-0.2,0.329
			c3.134,2.792,7.651-0.06,10.567-1.86C328.068,123.14,327.903,122.789,327.698,122.915z"/>
	</g>
</g>
<g id="Layer_16">
	<g>
		<path style="fill:#562B47;" d="M148.738,350.286c-0.349,1.026-0.804,2.298-1.341,3.759c1.894-0.682,4.646-2.191,6.461-5.474
			c2.207-3.993-0.688-14.014-2.373-19.035C151.697,336.148,150.969,343.725,148.738,350.286z"/>
		<g>
			
				<linearGradient id="SVGID_00000139985112503662657310000011317215421187866758_" gradientUnits="userSpaceOnUse" x1="189.5655" y1="123.2203" x2="193.0141" y2="213.8668">
				<stop  offset="0" style="stop-color:#F9C3AC"/>
				<stop  offset="1" style="stop-color:#F9A193"/>
			</linearGradient>
			<path style="fill:url(#SVGID_00000139985112503662657310000011317215421187866758_);" d="M193.376,226.889
				c0.133-1.01,0.195-1.763,0.195-1.889C193.571,225,193.456,225.861,193.376,226.889z"/>
			
				<linearGradient id="SVGID_00000156580323861127090800000004576450154168987833_" gradientUnits="userSpaceOnUse" x1="187.03" y1="123.3304" x2="190.4782" y2="213.9652">
				<stop  offset="0" style="stop-color:#F9C3AC"/>
				<stop  offset="1" style="stop-color:#F9A193"/>
			</linearGradient>
			<path style="fill:url(#SVGID_00000156580323861127090800000004576450154168987833_);" d="M190.993,227.597
				c0.004-0.015,0.007-0.025,0.007-0.025S190.997,227.582,190.993,227.597z"/>
			
				<linearGradient id="SVGID_00000180340326299347815330000015147794051154364309_" gradientUnits="userSpaceOnUse" x1="162.9345" y1="149.3496" x2="186.0209" y2="223.395">
				<stop  offset="0" style="stop-color:#F9C3AC"/>
				<stop  offset="1" style="stop-color:#F9A193"/>
			</linearGradient>
			<path style="fill:url(#SVGID_00000180340326299347815330000015147794051154364309_);" d="M194.428,229.715
				c-0.48,0.698-0.765,0.726-0.934,0.379v-0.002c-0.187-0.398-0.214-1.279-0.176-2.199c0,0,0-0.002,0-0.004
				c0.013-0.334,0.034-0.675,0.058-0.998c0.075-0.57,0.126-1.057,0.158-1.395v-0.013c0.026-0.257,0.037-0.427,0.037-0.482
				c0,0-0.017,0.118-0.043,0.319v0.015c-0.04,0.345-0.103,0.917-0.152,1.556c-0.322,2.436-0.62,5.044-1.907,5.442
				c-0.131,0.041-0.247,0.023-0.345-0.045c-0.454-0.3-0.596-1.599-0.617-2.946v-0.007c-0.002-0.131-0.002-0.264-0.002-0.396
				c-0.237,1.284-0.672,2.794-1.425,3.89c-0.827,1.204-1.558,1.48-1.937,1.152c-0.34-0.285-0.398-1.056,0.006-2.069
				c0.857-2.144,0.566-8.197-0.435-8.769l-0.011-0.006h-0.002c-0.999-0.517-2.565,5.295-4.296,5.722
				c-0.148,0.036-0.276,0.06-0.386,0.066c-1.187,0.072-0.278-1.611,0.767-5.996c1.142-4.791-1.215-10.071-1.928-11.213
				c-0.678-1.085-23.345-36.285-25.063-53.081l1.716-2.22l0.002-0.004l10.916-14.124c0.128,0.216,0.27,0.482,0.424,0.787
				c0.156,0.311,0.328,0.666,0.51,1.063c0.381,0.831,0.814,1.845,1.288,3.007c3.013,7.395,7.639,20.863,10.92,32.573
				c2.089,7.451,4.377,15.238,6.18,21.264c1.892,6.343,3.242,10.736,3.242,10.736s1.819,0.975,3.253,4.29
				C197.094,222.598,196.286,226.999,194.428,229.715z"/>
			<path style="opacity:0.4;fill:#ED9489;" d="M182.019,228.924c-1.187,0.072-0.278-1.611,0.767-5.996
				c1.142-4.791-1.215-10.071-1.928-11.213c-0.678-1.085-23.345-36.285-25.063-53.081l1.716-2.22l0.002-0.004l10.916-14.124
				c0.128,0.216,0.27,0.482,0.424,0.787c0.156,0.311,0.328,0.666,0.51,1.063c-2.61,3.328-9.73,11.848-9.184,14.548
				c0.107,0.532,1.172,8.46,8.674,24.746c7.504,16.286,14.576,27.996,15.111,31.357C184.459,217.89,184.772,225.727,182.019,228.924
				z"/>
			<path style="opacity:0.4;fill:#ED9489;" d="M188.642,229.875c-0.375,2.108-0.881,3.438-1.5,4.105
				c-0.34-0.285-0.398-1.056,0.006-2.069c0.857-2.144,0.566-8.197-0.435-8.769l-0.011-0.006c0.191-0.354,0.461-0.443,0.868-0.35
				C188.501,223.001,189.144,227.072,188.642,229.875z"/>
			<path style="opacity:0.4;fill:#ED9489;" d="M191.124,232.288c-0.454-0.3-0.596-1.599-0.617-2.946v-0.007
				c0.227-3.07-0.221-6.585-0.221-6.585s0.857-0.107,1.142,2.822C191.681,228.158,191.432,231.137,191.124,232.288z"/>
			<path style="opacity:0.4;fill:#ED9489;" d="M193.494,230.092c-0.187-0.398-0.214-1.279-0.176-2.199c0,0,0-0.002,0-0.004
				c0.017-0.095,0.037-0.191,0.058-0.291c0.141-0.682,0.178-1.408,0.158-2.103v-0.013c-0.002-0.05-0.004-0.099-0.006-0.148v-0.015
				c-0.071-1.68-0.456-3.111-0.456-3.111s0.643-0.922,1.071,2.006C194.494,226.613,193.789,228.895,193.494,230.092z"/>
		</g>
		<path style="fill:#FFF7AF;" d="M129,123.286c5.714-1.714,5.714-6.606,6.286-8.161c0.299-0.812,0.09-2.253-0.178-3.383
			c-6.268,1.988-13.705,1.409-19.751-1.837c-1.039,0.144-2.026,0.333-2.975,0.578c0.894,2.543,1.926,5.436,2.904,6.946
			C116.857,119.857,123.286,125,129,123.286z"/>
		
			<linearGradient id="SVGID_00000034064902165185177770000014466520806761745591_" gradientUnits="userSpaceOnUse" x1="130.2789" y1="131.0671" x2="120.4307" y2="100.3929">
			<stop  offset="0" style="stop-color:#F9C3AC"/>
			<stop  offset="1" style="stop-color:#F9A193"/>
		</linearGradient>
		<path style="fill:url(#SVGID_00000034064902165185177770000014466520806761745591_);" d="M133.481,117.274
			c-0.092,0.223-0.193,0.44-0.309,0.647c-0.839,1.518-2.279,2.879-4.69,3.597c-5.084,1.512-10.775-2.887-12.395-5.166
			c-0.018-0.025-0.035-0.051-0.053-0.076c-0.025-0.035-0.049-0.07-0.07-0.104c-0.892-1.379-1.835-4.02-2.65-6.341
			c-0.249-0.704-0.485-1.381-0.704-1.983c-0.219-0.603-0.42-1.13-0.603-1.539c1.066,1.064,2.293,2.036,3.697,2.822
			c0.106,0.061,0.217,0.115,0.325,0.174c5.52,2.963,12.254,3.024,17.976,1.209C134.004,110.515,134.653,114.427,133.481,117.274z"/>
		
			<linearGradient id="SVGID_00000026879930102166807700000010735745782765541510_" gradientUnits="userSpaceOnUse" x1="128.2967" y1="132.4718" x2="119.5822" y2="105.3285">
			<stop  offset="0" style="stop-color:#F9C3AC"/>
			<stop  offset="1" style="stop-color:#F9A193"/>
		</linearGradient>
		<path style="fill:url(#SVGID_00000026879930102166807700000010735745782765541510_);" d="M115.356,109.905
			c3.894-0.539,8.527-0.447,14.66-0.254c-6.863-0.989-19.063-3.029-19.066-3.029c1.168,1.167,2.511,2.232,4.049,3.093
			C115.118,109.78,115.238,109.841,115.356,109.905z"/>
		<path style="opacity:0.4;fill:#ED9489;" d="M133.481,117.274c-3.227-0.953-10.734-2.546-17.395-0.921
			c-0.018-0.025-0.035-0.051-0.053-0.076c-0.025-0.035-0.049-0.07-0.07-0.104c-0.892-1.379-1.835-4.02-2.65-6.341
			c-0.249-0.704-0.485-1.381-0.704-1.983c-0.219-0.603-0.42-1.13-0.603-1.539c1.066,1.064,2.293,2.036,3.697,2.822
			c0.106,0.061,0.217,0.115,0.325,0.174c5.52,2.963,12.254,3.024,17.976,1.209C134.004,110.515,134.653,114.427,133.481,117.274z"/>
		<path style="fill:#FFF7AF;" d="M133.532,109.747c-0.056-0.013-0.086-0.026-0.086-0.039
			C133.446,109.663,133.479,109.68,133.532,109.747z"/>
		<path style="fill:#FFF7AF;" d="M157.513,156.409c0,0.002-0.002,0.004-0.002,0.004c0.124,1.048,0.347,2.561,0.636,4.408
			c0.701,4.537,1.788,11.085,2.754,17.717c1.582,10.881,2.835,21.979,1.528,24.747c-0.219,0.463-0.57,0.943-1.035,1.434
			c-1.076,1.138-2.765,2.338-4.871,3.519c-7.086,3.98-18.889,7.774-27.808,8.476c-7.502,0.589-14.905-1.018-19.714-2.435
			c-1.755-0.517-3.163-1.009-4.106-1.358c-0.205-4.864-2.959-39.219-3.341-43.545c-0.448-5.115-1.272-9.396-1.933-11.938
			c-0.234-0.904-0.448-1.588-0.615-2.01c-0.083-0.21-0.186-0.429-0.306-0.658c0-0.002,0-0.002,0-0.002
			c-0.298-0.57-0.699-1.195-1.179-1.851c-3.868-5.293-12.775-12.748-12.806-12.774c0.025-0.06,0.521-1.2,1.337-2.946
			c1.961-4.191,5.773-11.88,9.375-16.482c2.529-3.229,5.548-5.342,8.151-6.735c0.086-0.045,0.172-0.09,0.255-0.135
			c2.58-1.348,4.712-1.989,5.486-2.323c0.208-0.09,0.416-0.173,0.626-0.255c0.289-0.113,0.707-0.278,1.162-0.454
			c0.707-0.27,1.502-0.563,2.04-0.718c0.056-0.017,0.112-0.032,0.167-0.047c0.056,0.159,0.113,0.317,0.169,0.478
			c0.864,2.404,1.905,4.898,2.925,6.242c1.35,1.785,5.846,5.777,10.946,4.999c0.043-0.004,0.085-0.013,0.13-0.021
			c0.081-0.013,0.165-0.028,0.248-0.043c0.229-0.047,0.459-0.101,0.69-0.167c0.088-0.025,0.178-0.051,0.266-0.082
			c0.006-0.002,0.013-0.002,0.017-0.006c0.021-0.004,0.042-0.013,0.064-0.019c4.89-1.616,5.413-6.437,5.379-9.767
			c-0.004-0.395-0.103-0.795-0.225-1.132c0-0.002-0.002-0.006-0.004-0.008c-0.133-0.364-0.293-0.651-0.388-0.773
			c0.023,0.006,0.051,0.013,0.084,0.017c0.006,0.002,0.013,0.004,0.019,0.004c0.536,0.101,2.122,0.244,3.605,0.46
			c0.39,0.058,0.771,0.12,1.125,0.188c0.752,0.146,1.489,0.311,2.209,0.495c1.936,0.495,3.753,1.127,5.447,1.873
			c1.048,0.458,2.051,0.962,3.007,1.502c4.487,2.526,7.931,5.856,10.258,9.341c2.355,3.525,4.746,8.383,6.548,12.36
			c0.422,0.932,0.812,1.817,1.164,2.623c1.14,2.636,1.852,4.453,1.856,4.462c-0.675,0.056-7.311,8.284-10.106,11.788
			C158.012,155.779,157.541,156.373,157.513,156.409z"/>
		<path style="fill:#FCE277;" d="M107.07,138.611c0,0,29.159-0.234,38.359-2.567c0,0,3.656,40.269,4.27,48.003
			c0,0-27.105,10.858-38.823,3.315c0,0-0.988-22.094-2.093-31.447C107.678,146.563,107.07,138.611,107.07,138.611z"/>
		<path style="opacity:0.6;fill:#F0C793;" d="M125.43,168.857c-0.999,3.713-16.429,10-18.467,11.211
			c-2.04,1.213-2.535-4.926-3.248-10.926c-0.713-6-2.856-19.427-4.708-29c0,0-0.09,5.284-0.229,11.369
			c0.727,1.87,1.049,3.975,0.844,5.926c0.66,2.542,1.485,6.823,1.933,11.938c0.381,4.326,3.135,38.681,3.341,43.545
			c0.943,0.349,2.351,0.842,4.106,1.358c-0.268-0.782-0.517-1.725-0.716-2.85c-0.858-4.858-0.714-25.429,0-26.136
			c0.716-0.705,8.286-3.864,14.604-6.864C129.208,175.429,126.429,165.144,125.43,168.857z"/>
		<path style="opacity:0.8;fill:#F0C793;" d="M133.566,109.738c0-0.049,0.025-0.037,0.066,0.028
			c-0.006-0.002-0.013-0.002-0.017-0.002C133.583,109.757,133.566,109.748,133.566,109.738z"/>
		<path style="opacity:0.8;fill:#F0C793;" d="M127.432,123.951c-10.704,1.339-14.563-7.986-16.324-13.14
			c-0.007-0.017-0.011-0.032-0.018-0.049c0.667-0.259,1.35-0.484,2.057-0.669c0.056-0.017,0.112-0.032,0.167-0.047
			c0.056,0.159,0.113,0.317,0.169,0.478c0.802,2.196,1.862,4.579,2.694,5.863c1.333,2.057,6.298,6.064,11.177,5.378
			c0.043-0.006,0.085-0.013,0.13-0.021c0.084-0.011,0.165-0.025,0.248-0.043c0.231-0.043,0.461-0.098,0.69-0.167
			c0.02-0.004,0.039-0.008,0.058-0.015c0.071-0.021,0.14-0.043,0.208-0.067c0.006-0.002,0.013-0.002,0.017-0.006
			c5.014-1.667,5.7-7.592,5.351-10.249c-0.032-0.245-0.079-0.469-0.133-0.669c0-0.002-0.002-0.006-0.004-0.008
			c-0.097-0.367-0.214-0.639-0.285-0.752c0.536,0.101,2.122,0.244,3.605,0.46c0.045,0.073,0.073,0.148,0.047,0.21
			C137.664,114.919,136.811,122.777,127.432,123.951z"/>
		
			<linearGradient id="SVGID_00000010303359569717928560000014527920647326937740_" gradientUnits="userSpaceOnUse" x1="136.7414" y1="206.8783" x2="112.3143" y2="430.5812">
			<stop  offset="0" style="stop-color:#6A3A4D"/>
			<stop  offset="1" style="stop-color:#5F334D"/>
		</linearGradient>
		<path style="fill:url(#SVGID_00000010303359569717928560000014527920647326937740_);" d="M162.268,256.967
			c-1.963,25.545-12.2,61.7-12.2,61.7c0.744,2.909,1.249,6.708,1.378,10.894c0.203,6.611-0.536,14.187-2.775,20.746
			c-0.351,1.025-0.807,2.296-1.347,3.757c-4.684,12.679-15.624,39.632-17.363,43.913c-0.65-0.811-1.371-1.486-2.181-1.953
			c-1.257-0.726-2.727-0.95-4.48-0.415c-0.073,0.021-0.142,0.052-0.206,0.083c0.118-1.894,1.562-24.641,2.398-36.177
			c0.714-9.843,1.104-28.614,1.224-35.146c0.002-0.128,0.004-0.253,0.007-0.373c0.021-1.229,0.033-1.935,0.033-1.935
			c-0.122-0.221-0.244-0.448-0.368-0.68c-0.122-0.231-0.244-0.468-0.368-0.71c-0.062-0.12-0.124-0.242-0.186-0.367
			c-0.129-0.257-0.259-0.519-0.389-0.786c-0.058-0.116-0.113-0.231-0.169-0.35c-0.68-1.424-1.365-2.985-2.053-4.661
			c-1.359-3.315-2.721-7.071-4.033-11.084c-0.087-0.264-0.175-0.53-0.26-0.798c-3.692-11.411-6.978-24.738-8.742-35.658
			c-1.487-9.216-2.757-20.79-3.667-31.034c-0.462-5.207-0.831-10.072-1.089-14.107c0-0.002,0-0.002,0-0.004
			c-0.139-2.158-0.245-4.081-0.316-5.692c-0.056-1.299-0.091-2.394-0.103-3.249c3.523,1.314,13.573,4.617,23.815,3.825
			c5.784-0.447,12.785-2.192,18.925-4.449c3.328-1.221,6.402-2.593,8.895-3.986c2.107-1.18,3.8-2.378,4.875-3.514
			c0.251,1.98,0.504,4.175,0.734,6.612C163.246,221.686,163.856,236.301,162.268,256.967z"/>
		<path style="fill:#3B2E37;" d="M135.48,409.215c-1.463-3.156-2.924-8.171-5.387-11.233c-1.662-2.066-3.78-3.244-6.664-2.358
			c-0.072,0.022-0.141,0.051-0.207,0.084c-1.689,0.852-1.275,5.225-0.222,8.793c1.393,4.721,2.877,11.555,7.571,12.071
			C136.412,417.215,137.931,414.5,135.48,409.215z"/>
		<g>
			
				<linearGradient id="SVGID_00000117655596770722672090000007512996021359426194_" gradientUnits="userSpaceOnUse" x1="117.5074" y1="78.0495" x2="111.836" y2="71.4979">
				<stop  offset="0" style="stop-color:#F9C3AC"/>
				<stop  offset="1" style="stop-color:#F9A193"/>
			</linearGradient>
			<path style="fill:url(#SVGID_00000117655596770722672090000007512996021359426194_);" d="M118.018,68.839
				c0.002,0.671-2.641,8.411-9.878,7.531c0,0-0.366-0.033-0.744-0.027c1.154-1.176,2.471-2.277,3.425-3.004
				C113.231,71.499,118.016,67.247,118.018,68.839z"/>
			
				<radialGradient id="SVGID_00000171711862656357056790000000056216344191259037_" cx="126.4283" cy="85.6603" r="35.1887" gradientUnits="userSpaceOnUse">
				<stop  offset="0" style="stop-color:#F9C3AC"/>
				<stop  offset="1" style="stop-color:#F9A193"/>
			</radialGradient>
			<path style="fill:url(#SVGID_00000171711862656357056790000000056216344191259037_);" d="M145.814,89.695
				c-0.347,0.26-0.575,0.399-0.575,0.399s0.391,1.043,0.912,3.928c0.522,2.885-1.043,8.72-7.433,13.805
				c-0.941,0.749-1.968,1.396-3.058,1.946c-0.948,0.479-1.942,0.882-2.973,1.209c-5.722,1.815-12.509,1.287-18.028-1.676
				c-0.107-0.059-0.219-0.113-0.325-0.174c-1.404-0.786-2.631-1.758-3.697-2.822c-4.774-4.769-6.345-11.392-6.345-11.392
				s-1.076-0.249-2.341-0.767c-0.982-0.405-2.076-0.97-2.874-1.71c-1.827-1.695-3.392-6.65-0.653-7.955
				c0.399-0.19,0.78-0.233,1.14-0.17c1.141,0.202,2.081,1.477,2.707,2.613c1.019,2.458,2.054,4.5,2.054,4.5
				s-0.313-6.795-0.098-9.388c0.15-1.81,1.252-3.591,2.613-5.109c0.295,0.215,0.849,0.509,1.788,0.904
				c4.297,1.809,11.834,3.814,18.582-0.685c6.749-4.499,10.073-8.02,10.367-8.802c0.294-0.782,0.782,2.934,2.347,6.357
				c1.244,2.723,2.582,5.484,3.077,6.499c0.082,0.337,0.15,0.495,0.2,0.409c0.708-1.216,1.684-1.789,2.642-1.815
				c1.555-0.045,3.065,1.352,3.308,3.773C149.452,86.585,146.972,88.825,145.814,89.695z"/>
		</g>
		
			<linearGradient id="SVGID_00000041294837633788830570000006975426731694861210_" gradientUnits="userSpaceOnUse" x1="116.8571" y1="74.8606" x2="130.7444" y2="64.6244">
			<stop  offset="0" style="stop-color:#5A3334"/>
			<stop  offset="0.9949" style="stop-color:#6C3A3C"/>
		</linearGradient>
		<path style="fill:url(#SVGID_00000041294837633788830570000006975426731694861210_);" d="M142.467,72.849
			c-0.135-1.7-0.563-6.645-2.771-11.421c-0.36-0.78-0.768-1.557-1.23-2.314c0-0.001-0.002-0.001-0.002-0.001
			c0.002-0.002,0.002-0.002,0-0.002c0-0.002,0-0.002,0-0.002c-0.077-0.125-0.153-0.244-0.231-0.368
			c-0.002-0.002-0.002-0.002-0.002-0.004c-0.199-0.313-0.411-0.622-0.63-0.927c-0.061-0.083-0.121-0.167-0.184-0.249
			c-0.458-0.61-0.956-1.201-1.502-1.76c-0.057-0.059-0.115-0.118-0.176-0.176c-0.443-0.444-0.921-0.869-1.43-1.269
			c-0.055-0.043-0.109-0.086-0.166-0.127c-0.34-0.262-0.694-0.511-1.064-0.747c-0.083-0.055-0.167-0.108-0.252-0.159
			c-0.706-0.436-1.467-0.825-2.285-1.162c-0.113-0.045-0.227-0.092-0.342-0.135h-0.002c-1.209-0.465-2.539-0.813-3.999-1.015
			c-0.166-0.023-0.333-0.043-0.503-0.063c-1.205-0.137-2.497-0.176-3.885-0.104c-0.733,0.039-2.807,0.164-5.4,0.776
			c-0.254,0.059-0.513,0.123-0.777,0.194c-3.824,1.007-8.539,3.079-11.771,7.353c-0.204,0.264-0.397,0.536-0.583,0.817
			c-0.325,0.481-0.627,0.988-0.909,1.52c-1.213,2.29-1.987,4.348-2.459,6.206c-0.031,0.127-0.061,0.252-0.09,0.377
			c-0.168,0.718-0.291,1.404-0.377,2.062c-0.614,4.718,0.681,7.947,0.872,10.328c0.139,1.709,1.041,4.249,1.956,6.453
			c1.019,2.458,2.054,4.5,2.054,4.5s-0.309-3.511,0.163-7.329c0.17-1.379,0.44-2.797,0.865-4.104
			c0.279-0.864,0.626-1.68,1.054-2.404c0.137-0.23,0.282-0.452,0.435-0.661c0.023,0.018,0.051,0.035,0.078,0.053
			c0.221,0.151,0.56,0.335,1.05,0.562c0.057,0.025,0.118,0.053,0.178,0.082c0.148,0.065,0.309,0.135,0.481,0.208
			c0.517,0.217,1.08,0.438,1.685,0.649c0.005,0.002,0.013,0.004,0.019,0.006c0.704,0.248,1.465,0.481,2.267,0.687
			c0.006,0.004,0.012,0.004,0.02,0.004c4.217,1.068,9.618,1.285,14.591-2.03c5.136-3.423,8.29-6.283,9.631-7.796l0.002-0.002
			c0.178-0.199,0.321-0.373,0.436-0.526c0-0.001,0.002-0.001,0.002-0.004c0.157-0.207,0.254-0.366,0.295-0.473
			c0.041-0.11,0.086-0.131,0.137-0.078c0.081,0.084,0.176,0.352,0.295,0.755c0.35,1.173,0.912,3.487,1.915,5.68
			c1.244,2.723,2.582,5.484,3.077,6.499c0.127,0.26,0.2,0.409,0.2,0.409S142.76,76.565,142.467,72.849z M107.571,76.172
			c0.061-0.057,0.131-0.121,0.209-0.191c1.619-1.479,6.766-5.751,9.085-7.003c0.119-0.064,0.23-0.122,0.335-0.168
			c0.219-0.102,0.401-0.162,0.538-0.178c0.18-0.02,0.28,0.043,0.28,0.207c0,0.297-0.512,1.964-1.706,3.662
			c-0.078,0.114-0.163,0.229-0.25,0.344c-0.874,1.156-2.073,2.287-3.646,2.959c-0.321,0.139-0.658,0.258-1.01,0.352
			c-0.325,0.092-0.663,0.161-1.017,0.21c-0.274,0.037-0.556,0.061-0.845,0.068c-0.448,0.016-0.916-0.006-1.404-0.064
			c0,0-0.282-0.025-0.604-0.027h-0.139C107.442,76.295,107.501,76.24,107.571,76.172z"/>
		<path style="opacity:0.3;fill:#ED9489;" d="M130.539,83.96c-0.036-0.258-0.406-4.413,2.289-5.391
			c2.695-0.978,5.513,2.646,5.351,3.842c0,0-0.211,1.883-2.607,2.322C133.176,85.171,130.539,83.96,130.539,83.96z"/>
		<path style="opacity:0.3;fill:#ED9489;" d="M118.38,86.027c0,0-0.265-4.805-4.47-4.605c-4.206,0.2-3.511,5.064-3.511,5.064
			s2.229,1.619,4.801,1.326C117.773,87.519,118.38,86.027,118.38,86.027z"/>
		<path style="opacity:0.5;fill:#FC746D;" d="M138.118,88.988c1.695,1.239,6.324-2.934,4.042-4.759
			C139.878,82.403,136.284,87.649,138.118,88.988z"/>
		<path style="opacity:0.5;fill:#FC746D;" d="M107.402,88.844c-1.148,2.179,3.705,5.232,4.919,2.937
			C113.357,89.819,108.441,86.871,107.402,88.844z"/>
		<g>
			<path style="fill:#FFFFFF;" d="M113.234,85.432c-0.04-0.631,0.266-1.204,0.755-1.547c-1.906,0.484-3.587,2.646-3.587,2.646
				s1.578,0.478,4.103,0.474C113.809,86.797,113.282,86.187,113.234,85.432z"/>
			<path style="fill:#FFFFFF;" d="M110.403,86.531c0,0-0.001-0.017-0.003-0.045C110.398,86.506,110.399,86.521,110.403,86.531z"/>
			<path style="fill:#FFFFFF;" d="M117.097,84.733c-0.17-0.133-0.354-0.262-0.551-0.38c0.164,0.247,0.268,0.536,0.288,0.851
				c0.048,0.767-0.413,1.45-1.097,1.736c1.884-0.218,2.643-0.913,2.643-0.913C118.14,85.815,117.7,85.272,117.097,84.733z"/>
			<path style="fill:#457584;" d="M114.506,87.005c0.202,0.06,0.417,0.088,0.64,0.074c0.209-0.013,0.408-0.063,0.591-0.139
				c-0.313,0.036-0.652,0.061-1.029,0.065C114.639,87.006,114.574,87.005,114.506,87.005z"/>
			<path style="fill:#457584;" d="M116.835,85.205c-0.02-0.315-0.124-0.604-0.288-0.851c-0.656-0.394-1.442-0.665-2.285-0.527
				c-0.091,0.015-0.182,0.036-0.272,0.058c-0.489,0.344-0.795,0.916-0.755,1.547c0.048,0.754,0.574,1.365,1.271,1.573
				c0.068,0,0.133,0.001,0.203,0c0.376-0.004,0.716-0.029,1.029-0.065C116.422,86.655,116.883,85.972,116.835,85.205z"/>
			<path style="fill:#566266;" d="M116.546,84.354c0.196,0.118,0.38,0.247,0.551,0.38c-0.204-0.183-0.426-0.365-0.666-0.533
				C116.472,84.249,116.511,84.3,116.546,84.354z"/>
			<path style="fill:#566266;" d="M115.2,83.563c0.448,0.149,0.86,0.377,1.23,0.638C116.131,83.842,115.692,83.605,115.2,83.563z"/>
			<path style="fill:#566266;" d="M113.146,82.421c-2.82,1.142-2.769,3.702-2.747,4.065c0.002,0.028,0.003,0.045,0.003,0.045
				s1.68-2.162,3.587-2.646c0.09-0.023,0.181-0.043,0.272-0.058c0.843-0.138,1.629,0.133,2.285,0.527
				c-0.036-0.053,0.347,0.197,0.551,0.38c0.788,0.611,1.283,1.294,1.283,1.294C118.727,84.8,116.185,81.19,113.146,82.421z"/>
		</g>
		<g>
			<path style="fill:#FFFFFF;" d="M136.67,81.163c0.071,0.177,0.118,0.367,0.135,0.566c0.09,1.081-0.726,2.032-1.822,2.123
				c-1.097,0.091-2.058-0.711-2.148-1.792c-0.039-0.467,0.092-0.91,0.341-1.27c-1.786,0.834-2.637,3.17-2.637,3.17
				s2.093,0.538,4.589-0.023c2.496-0.561,3.051-1.525,3.051-1.525S137.587,81.716,136.67,81.163z"/>
			<path style="fill:#457584;" d="M133.715,80.594c0.072-0.017,0.145-0.034,0.22-0.049
				C133.861,80.559,133.788,80.575,133.715,80.594z"/>
			<path style="fill:#457584;" d="M133.936,80.545c-0.075,0.015-0.148,0.032-0.22,0.049c-0.189,0.049-0.368,0.116-0.54,0.196
				c-0.249,0.36-0.38,0.803-0.341,1.27c0.09,1.082,1.052,1.884,2.148,1.792c1.096-0.091,1.912-1.042,1.822-2.123
				c-0.017-0.2-0.064-0.39-0.135-0.566C135.926,80.714,134.968,80.359,133.936,80.545z"/>
			<path style="fill:#566266;" d="M132.993,79.471c-3.118,1.319-2.455,4.49-2.455,4.49s0.852-2.336,2.637-3.17
				c0.01-0.015,0.021-0.029,0.032-0.043c0.16-0.059,0.328-0.11,0.507-0.152c0.072-0.019,0.145-0.035,0.22-0.049
				c1.032-0.186,1.99,0.169,2.734,0.618c0.917,0.553,1.509,1.248,1.509,1.248C138.643,81.402,136.111,78.151,132.993,79.471z"/>
			<path style="fill:#566266;" d="M133.715,80.594c-0.179,0.043-0.348,0.094-0.507,0.152c-0.011,0.015-0.022,0.029-0.032,0.043
				C133.347,80.71,133.526,80.643,133.715,80.594z"/>
		</g>
		<path style="opacity:0.3;fill:#DD7972;" d="M98.686,87.127c0.057-0.425,2.608-0.293,3.651,1.597
			c1.043,1.891,1.174,3.781,1.108,4.107c-0.065,0.326-2.203-0.721-2.373-1.86c-0.17-1.139,0.352-2.247,0.352-2.247
			s-0.782-0.753-1.891-0.833C98.425,87.812,98.621,87.616,98.686,87.127z"/>
		<path style="opacity:0.3;fill:#DD7972;" d="M146.803,81.096c-0.385,0.254-2.216,2.217-2.086,3.847
			c0.13,1.63,0.841,2.738,1.04,2.607c0.199-0.13,0.779-2.278,0.263-3.805c-0.131-0.386,0.849-1.446,1.174-1.82
			C147.52,81.553,147.2,80.834,146.803,81.096z"/>
		<path style="opacity:0.8;fill:#E86562;" d="M129.605,102.515c-1.855-0.074-3.758-0.051-5.555,0.463
			c-0.362,0.103-0.239,0.677,0.126,0.573c1.751-0.5,3.591-0.522,5.398-0.45C129.952,103.115,129.984,102.529,129.605,102.515z"/>
		<path style="fill:#C57D6D;" d="M130.032,94.048c-0.008-0.015-0.017-0.029-0.028-0.043c-2.599-3.228-4.732-8.548-3.069-12.62
			c0.144-0.351-0.414-0.534-0.557-0.186c-1.724,4.219,0.414,9.68,3.09,13.071c-0.893,0.984-2.313,0.598-3.367,0.012
			c-0.329-0.183-0.653,0.307-0.322,0.49c1.416,0.787,3.232,1.129,4.318-0.345C130.205,94.281,130.146,94.131,130.032,94.048z"/>
		
			<linearGradient id="SVGID_00000166637823606490827300000016444807227700755598_" gradientUnits="userSpaceOnUse" x1="69.8097" y1="157.0213" x2="115.0237" y2="174.8069">
			<stop  offset="0" style="stop-color:#F9C3AC"/>
			<stop  offset="1" style="stop-color:#F9A193"/>
		</linearGradient>
		<path style="fill:url(#SVGID_00000166637823606490827300000016444807227700755598_);" d="M119.295,177.244
			c-4.635,2.966-11.085,5.042-17.312,6.343c-8.149,1.702-15.909,2.072-18.696,1.372c-4.729-1.191-8.044-5.031-8.353-10.114
			c-0.047-0.756-0.025-1.538,0.066-2.344c0.714-6.227,7.5-29.786,9.714-32.357c0.023,0.021,5.657,4.734,9.911,9.326
			c1.097,1.185,2.104,2.361,2.897,3.448c1.485,2.511,1.485,2.511,1.485,3.482c0,3.418-5.875,12.87-6.206,13.399
			c-0.011,0.015-0.015,0.023-0.015,0.023c0.92,0.178,10.731,0.302,18.472,0.262c1.423,1.828,2.963,3.639,4.224,4.95
			c0.94,0.98,1.727,1.68,2.192,1.901C118.138,177.154,118.697,177.249,119.295,177.244z"/>
		
			<linearGradient id="SVGID_00000124156018139780010760000001206137724739250065_" gradientUnits="userSpaceOnUse" x1="120.0401" y1="142.5186" x2="121.1041" y2="170.4839">
			<stop  offset="0" style="stop-color:#F9C3AC"/>
			<stop  offset="1" style="stop-color:#F9A193"/>
		</linearGradient>
		<path style="fill:url(#SVGID_00000124156018139780010760000001206137724739250065_);" d="M120.777,162.902
			c0.041,0.154,0.07,0.248,0.083,0.265C120.876,163.189,120.846,163.092,120.777,162.902z"/>
		
			<linearGradient id="SVGID_00000181790887711679940400000017988542053812348299_" gradientUnits="userSpaceOnUse" x1="121.649" y1="173.3454" x2="78.2192" y2="175.5169">
			<stop  offset="0" style="stop-color:#F9C3AC"/>
			<stop  offset="1" style="stop-color:#F9A193"/>
		</linearGradient>
		<path style="fill:url(#SVGID_00000181790887711679940400000017988542053812348299_);" d="M119.357,169.921
			c-1.667,0.093-4.682,0.143-8.1,0.162c2.483,3.193,5.327,6.333,6.415,6.85c0.466,0.221,1.025,0.317,1.623,0.313
			c1.109-0.71,2.116-1.47,2.99-2.284C122.286,174.961,127.071,169.493,119.357,169.921z"/>
		<circle style="opacity:0.5;fill:#FFFFFF;" cx="115.2" cy="85.229" r="0.4"/>
		<path style="opacity:0.5;fill:#FFFFFF;" d="M135.477,81.96c0,0.221-0.179,0.4-0.4,0.4c-0.221,0-0.399-0.179-0.399-0.4
			c0-0.221,0.179-0.4,0.399-0.4C135.297,81.56,135.477,81.739,135.477,81.96z"/>
		<g>
			<path style="fill:#472428;" d="M137.601,57.81c-0.045,1.089-0.229,2.184-0.413,3.198c-0.489,2.689-1.25,5.293-2.656,7.658
				c-2.57,4.315-6.807,7.736-11.515,9.455c-3.233,1.182-6.911,1.581-10.398,1.062c-0.008,0-0.014,0-0.02-0.004
				c-0.802-0.205-1.563-0.438-2.267-0.687c1.479,0.401,3.014,0.61,4.544,0.663c2.269,0.08,4.59-0.124,6.771-0.782
				c4.992-1.506,9.574-4.843,12.381-9.266c1.523-2.398,2.399-5.056,2.912-7.835c0.215-1.17,0.448-2.449,0.475-3.71
				C137.48,57.643,137.54,57.727,137.601,57.81z"/>
			<path style="fill:#472428;" d="M109.544,76.434c-0.647,0.243-1.238,0.591-1.575,1.113c0.057,0.025,0.118,0.053,0.178,0.082
				c0.444-0.673,1.344-1.04,2.242-1.263c0.348-0.088,0.696-0.155,1.017-0.21c0.239-0.039,0.462-0.072,0.659-0.104
				c1.723-0.27,3.466-0.364,5.189-0.649c4.821-0.804,9.459-2.631,12.679-6.445c1.944-2.304,3.299-5.066,4.393-7.857
				c0.643-1.641,1.334-3.468,1.588-5.3c-0.057-0.059-0.115-0.118-0.176-0.176c-0.223,1.756-0.87,3.507-1.473,5.095
				c-1.007,2.648-2.263,5.199-3.973,7.468c-1.586,2.103-3.647,3.744-6.008,4.902c-2.265,1.111-4.743,1.733-7.221,2.147
				c-1.541,0.256-3.103,0.352-4.647,0.567L109.544,76.434z"/>
			<path style="fill:#472428;" d="M134.309,54.355c-0.211,0.61-0.444,1.214-0.702,1.807c-1.134,2.607-2.447,5.072-4.248,7.284
				c-1.702,2.089-3.626,4.12-5.896,5.596c-2.28,1.486-4.815,2.49-7.237,3.718c-0.055,0.027-0.109,0.057-0.165,0.084
				c0.088-0.115,0.172-0.23,0.25-0.344c1.125-0.561,2.267-1.08,3.398-1.624c1.207-0.581,2.406-1.189,3.529-1.921
				c1.22-0.794,2.314-1.725,3.347-2.75c2.03-2.017,3.896-4.254,5.257-6.785c0.718-1.338,1.375-2.741,1.924-4.157
				c0.134-0.342,0.257-0.688,0.376-1.037C134.199,54.269,134.254,54.312,134.309,54.355z"/>
			<path style="fill:#472428;" d="M133.079,53.481c-0.614,0.143-1.203,0.45-1.729,0.763c-0.82,0.489-1.577,1.066-2.346,1.629
				c-1.926,1.408-3.696,3.014-5.334,4.751c-2.394,2.541-4.629,5.234-6.47,8.186c-0.104,0.047-0.215,0.104-0.335,0.168
				c1.936-3.175,4.329-6.061,6.908-8.745c1.686-1.755,3.503-3.317,5.453-4.768c1.011-0.754,2.271-1.79,3.599-2.142
				C132.912,53.373,132.996,53.426,133.079,53.481z"/>
			<path style="fill:#472428;" d="M138.262,65.549c-0.211,1.132-0.549,2.224-0.98,3.274c0,0.003-0.002,0.003-0.002,0.004
				c-0.115,0.153-0.258,0.327-0.436,0.526c0.571-1.27,1.009-2.596,1.254-3.982c0.385-2.187,0.366-4.422,0.135-6.631
				c0.078,0.124,0.154,0.243,0.231,0.368c0,0,0,0,0,0.002v0.002c0,0,0.002,0,0.002,0.001
				C138.667,61.262,138.657,63.431,138.262,65.549z"/>
			<path style="fill:#472428;" d="M130.542,52.161c-0.702,0.139-1.395,0.323-2.075,0.542c-5.13,1.663-9.764,5.004-13.727,8.597
				c-2.132,1.933-3.957,4.174-5.551,6.564c-0.769,1.152-1.526,2.33-2.193,3.544c-0.712,1.291-1.259,2.654-1.236,4.152
				c0,0.016-0.002,0.029-0.008,0.039c0.628,0.26,1.304,0.401,2.028,0.381c-0.079,0.07-0.149,0.135-0.209,0.191
				c-2.701-0.041-4.784-2.251-6.153-4.473c-0.704-1.138-1.246-2.355-1.596-3.611c0.029-0.125,0.059-0.25,0.09-0.377
				c0.327,1.313,0.865,2.58,1.588,3.753c0.593,0.96,1.316,1.935,2.164,2.734c-0.343-0.903-0.524-1.848-0.585-2.807
				c-0.859-2.523-1.174-5.232-0.761-7.877c0.189-1.218,0.514-2.397,0.962-3.53c0.186-0.282,0.379-0.554,0.583-0.817
				c-1.651,3.593-1.95,7.658-0.806,11.517c-0.004-1.326,0.203-2.662,0.528-3.928c0.587-2.282,1.532-4.491,2.78-6.492
				c1.115-1.786,2.503-3.329,4.082-4.72c1.594-1.406,3.325-2.693,5.187-3.73c0.264-0.07,0.522-0.135,0.777-0.194
				c-2.107,1.098-4.063,2.492-5.835,4.068c-1.627,1.448-3.067,3.042-4.19,4.916c-1.252,2.093-2.23,4.389-2.748,6.777
				c-0.024,0.104-0.045,0.21-0.067,0.315c0.039-0.104,0.078-0.206,0.123-0.307c0.884-2.026,2.381-3.824,3.84-5.465
				c1.87-2.103,4.09-3.863,6.414-5.441c2.38-1.62,4.833-3.085,7.518-4.143c1.385-0.545,2.797-1.001,4.229-1.393
				c0.17,0.02,0.337,0.039,0.503,0.063c-1.849,0.485-3.672,1.072-5.43,1.827c-2.691,1.156-5.181,2.699-7.562,4.397
				c-2.273,1.622-4.374,3.425-6.165,5.572c-0.755,0.906-1.501,1.827-2.146,2.815c-0.64,0.976-1.26,2.048-1.416,3.223
				c-0.01,0.061-0.06,0.09-0.109,0.088c-0.104,0.804-0.143,1.618-0.098,2.423c0.043,0.125,0.084,0.249,0.131,0.372
				c0.025,0.072-0.032,0.135-0.088,0.145c0.09,0.841,0.282,1.67,0.608,2.463c0.016,0.035,0.008,0.066-0.008,0.092
				c0.509,0.442,1.056,0.819,1.651,1.089c-0.027-2.414,1.393-4.516,2.631-6.484c1.479-2.345,3.126-4.603,5.07-6.588
				c1.84-1.881,3.936-3.562,6.071-5.095c3.226-2.316,6.91-4.487,10.859-5.324h0.002C130.314,52.068,130.428,52.116,130.542,52.161z"
				/>
		</g>
		<path style="opacity:0.6;fill:#F0C793;" d="M146.02,112.785c-2.79,3.439-9.443,10.215-19.236,11.235
			c-10.699,1.114-19.854-7.035-22.95-10.176c2.58-1.348,4.712-1.989,5.486-2.323c0.208-0.09,0.416-0.173,0.626-0.255
			c0.289-0.113,0.707-0.278,1.162-0.454c0.707-0.27,1.502-0.563,2.04-0.718c0.056-0.017,0.112-0.032,0.167-0.047
			c0.056,0.159,0.113,0.317,0.169,0.478c0.864,2.404,1.905,4.898,2.925,6.242c1.35,1.785,5.846,5.777,10.946,4.999
			c0.043-0.004,0.085-0.013,0.13-0.021c0.081-0.013,0.165-0.028,0.248-0.043c0.229-0.047,0.459-0.101,0.69-0.167
			c0.088-0.025,0.178-0.051,0.266-0.082c0.006-0.002,0.013-0.002,0.017-0.006c0.021-0.004,0.042-0.013,0.064-0.019
			c4.89-1.616,5.413-6.437,5.379-9.767c-0.004-0.395-0.103-0.795-0.225-1.132c0-0.002-0.002-0.006-0.004-0.008
			c-0.133-0.364-0.293-0.651-0.388-0.773c0.023,0.006,0.051,0.013,0.084,0.017c0.006,0.002,0.013,0.004,0.019,0.004
			c0.536,0.101,2.122,0.244,3.605,0.46c0.39,0.058,0.771,0.12,1.125,0.188c0.752,0.146,1.489,0.311,2.209,0.495
			C142.509,111.407,144.326,112.039,146.02,112.785z"/>
		<path style="opacity:0.3;fill:#5A3334;" d="M143.201,81.615c0,0-0.073-0.148-0.2-0.409c-0.495-1.015-1.833-3.777-3.077-6.499
			c-1.003-2.193-1.565-4.507-1.915-5.68c0.495-2.026,1.309-4.444,1.686-7.599c2.208,4.776,2.637,9.721,2.771,11.421
			C142.76,76.565,143.201,81.615,143.201,81.615z"/>
		<path style="opacity:0.3;fill:#5A3334;" d="M125.64,76.44c-5.641,1.618-14.604,1.7-18.238,0.03
			c0.044-0.043,0.088-0.085,0.134-0.128h-0.139c0.045-0.047,0.104-0.102,0.174-0.17c0.061-0.057,0.131-0.121,0.209-0.191
			c1.619-1.479,6.766-5.751,9.085-7.003c0.119-0.064,0.23-0.122,0.335-0.168c0.219-0.102,0.401-0.162,0.538-0.178
			c-1.123-0.575-6.482,1.586-9.768,5.005c-1.869,1.944-3.17,3.914-3.889,5.805c-3.168-1.802-3.743-5.793-4.637-9.291
			c-0.614,4.717,0.681,7.947,0.872,10.327c0.139,1.709,1.041,4.249,1.956,6.453c1.019,2.459,2.054,4.501,2.054,4.501
			s-0.311-3.55,0.17-7.391c0.016-0.128,0.033-0.255,0.051-0.384c0.006-0.042,0.012-0.084,0.018-0.127
			c0.018-0.126,0.037-0.252,0.057-0.378c0.008-0.047,0.015-0.094,0.022-0.141c0.019-0.119,0.04-0.237,0.061-0.356
			c0.01-0.055,0.019-0.11,0.03-0.165c0.02-0.108,0.041-0.215,0.062-0.323c0.013-0.065,0.026-0.13,0.039-0.195
			c0.02-0.096,0.041-0.191,0.063-0.287c0.016-0.074,0.032-0.148,0.049-0.222c0.02-0.086,0.042-0.172,0.063-0.258
			c0.02-0.081,0.04-0.162,0.061-0.241c0.021-0.084,0.045-0.167,0.068-0.251c0.022-0.079,0.043-0.159,0.066-0.237
			c0.043-0.146,0.087-0.289,0.133-0.432c0.005-0.015,0.009-0.029,0.014-0.043v0c0.299-0.929,0.679-1.8,1.153-2.563
			c0.037-0.059,0.073-0.119,0.11-0.177c0.073-0.111,0.148-0.219,0.225-0.325c0.023,0.018,0.051,0.035,0.078,0.053
			c0.221,0.151,0.56,0.335,1.05,0.562c0.057,0.025,0.118,0.053,0.178,0.082c0.148,0.065,0.309,0.135,0.481,0.208
			c0.517,0.217,1.08,0.438,1.685,0.649c0.005,0.002,0.013,0.004,0.019,0.006c0.704,0.248,1.465,0.481,2.267,0.687
			c0.006,0.004,0.012,0.004,0.02,0.004c4.217,1.068,9.618,1.285,14.591-2.03c5.136-3.423,8.29-6.283,9.631-7.796l0.002-0.002
			c0.178-0.199,0.321-0.373,0.436-0.526c0-0.001,0.002-0.001,0.002-0.004c0.157-0.207,0.254-0.366,0.295-0.473
			c0.041-0.11,0.086-0.131,0.137-0.078c0.004-0.018,0.006-0.027,0.006-0.027l0.29-2.415C137.227,67.91,132.134,74.576,125.64,76.44z
			"/>
		<path style="opacity:0.3;fill:#ED9489;" d="M146.15,94.022c-0.521-2.885-0.912-3.928-0.912-3.928s0.229-0.139,0.575-0.399
			c-0.55-2.439-0.258-7.194,0.029-9.895c-0.958,0.025-1.934,0.599-2.642,1.815c-0.049,0.087-0.118-0.072-0.2-0.409
			c-0.495-1.015-1.833-3.777-3.077-6.499c-1.565-3.423-2.054-7.139-2.347-6.357c-0.293,0.782-3.618,4.303-10.367,8.802
			c-6.748,4.498-14.284,2.494-18.582,0.685c-0.939-0.395-1.492-0.688-1.788-0.904c-1.361,1.518-2.463,3.3-2.613,5.109
			c-0.215,2.593,0.098,9.388,0.098,9.388s-1.035-2.042-2.054-4.5c-0.626-1.136-1.566-2.412-2.707-2.613
			c1.295,3.306,2.119,8.004,2.387,9.833v0.002c1.265,0.518,2.341,0.767,2.341,0.767s1.57,6.622,6.345,11.392
			c1.066,1.064,2.292,2.036,3.697,2.822c0.105,0.061,0.217,0.115,0.325,0.174c5.52,2.963,12.307,3.492,18.028,1.676
			c1.03-0.326,2.024-0.729,2.973-1.209c1.089-0.55,2.116-1.197,3.058-1.946C145.107,102.742,146.672,96.907,146.15,94.022z
			 M137.029,106.915c-5.864,3.912-17.285,2.543-21.292,0.521c-4.008-2.021-8.51-6.715-10.204-12.387
			c-1.696-5.672,0.767-14.274,1.434-15.644c0.221-0.454,0.364-0.917,0.429-1.375c3.317,2.863,10.891,3.521,17.502,2.022
			c6.912-1.565,12.704-9.845,12.704-9.845c0.121,2.348,2.486,7.498,3.595,9.197c1.109,1.698,2.803,4.755,3.515,10.732
			C145.42,96.115,142.892,103.004,137.029,106.915z M108.14,76.37c7.237,0.88,9.879-6.86,9.878-7.531
			c-0.002-1.592-4.786,2.66-7.196,4.499c-0.954,0.728-2.271,1.829-3.425,3.004C107.774,76.336,108.14,76.37,108.14,76.37z"/>
		<path style="fill:#5A3334;" d="M107.494,79.058c1.739,1.467,5.424,5.099,11.475,1.467c0,0-4.43-0.893-7.838-1.382
			C107.723,78.654,107.494,79.058,107.494,79.058z"/>
		<path style="fill:#5A3334;" d="M129.069,78.032c0.113,0.694,2.312,0.923,5.225-0.057c3.32-1.117,4.032-3.544,3.655-4.339
			C137.949,73.637,129.024,77.756,129.069,78.032z"/>
		<path style="opacity:0.3;fill:#ED9489;" d="M99.006,156.398c0,3.418-5.875,12.87-6.206,13.399
			c-1.232,0.446-2.158,0.667-2.158,0.667c3.48-3.771,4.255-16.176,3.981-20.996c1.097,1.185,2.104,2.361,2.897,3.448
			C99.006,155.428,99.006,155.428,99.006,156.398z"/>
		<path style="opacity:0.3;fill:#ED9489;" d="M119.295,177.244c-4.635,2.966-11.085,5.042-17.312,6.343
			c-8.149,1.702-15.909,2.072-18.696,1.372c-4.729-1.191-8.044-5.031-8.353-10.114c1.48,2.705,4.852,6.45,10.566,6.763
			c6.694,0.366,21.302-2.876,29.981-6.575c0.94,0.98,1.727,1.68,2.192,1.901C118.138,177.154,118.697,177.249,119.295,177.244z"/>
		<g>
			
				<linearGradient id="SVGID_00000129193168539753741890000014544501804784313499_" gradientUnits="userSpaceOnUse" x1="116.5213" y1="152.3845" x2="118.6641" y2="175.0981">
				<stop  offset="0" style="stop-color:#F9C3AC"/>
				<stop  offset="1" style="stop-color:#F9A193"/>
			</linearGradient>
			<path style="fill:url(#SVGID_00000129193168539753741890000014544501804784313499_);" d="M126.964,169.764
				c-0.238,1.014-0.636,1.999-1.119,2.893c-0.962,1.785-2.263,3.199-3.311,3.739c-1.003,0.519-2.182,0.842-3.24,0.849
				c-0.598,0.004-1.157-0.09-1.622-0.311c-1.089-0.519-3.932-3.658-6.416-6.851c-2.261-2.908-4.226-5.859-4.293-6.915
				c-0.011-0.159,0.007-0.283,0.047-0.379c0.512-1.23,4.999,2.655,7.656,5.895c-0.017-0.028-0.058-0.094-0.116-0.195
				c-0.002-0.002-0.004-0.002-0.004-0.004c-0.896-1.472-6.058-10.119-5.012-11.786c0.017-0.027,0.036-0.051,0.058-0.072
				c1.273-1.378,7.867,9.559,8.081,9.913c-0.024-0.062-0.169-0.452-0.397-1.074v-0.002c-1.334-3.645-5.451-15.289-3.885-16.057
				c0.069-0.032,0.14-0.045,0.219-0.036c1.866,0.171,6.476,11.631,7.164,13.532c0.043,0.154,0.071,0.249,0.083,0.266
				c0.017,0.021-0.013-0.077-0.083-0.266c-0.08-0.3-0.206-0.823-0.352-1.511c-0.004-0.007-0.006-0.013-0.006-0.02
				c-0.881-4.003-2.608-13.301-1.024-13.181c0.015,0.002,0.028,0.002,0.043,0.006c1.71,0.304,3.816,11.096,4.382,14.165
				c0,0.004,0,0.006,0.002,0.008c0.092,0.503,0.144,0.797,0.144,0.797s1.429-7.532,3-6.165c0.026,0.021,0.051,0.047,0.075,0.073
				C128.507,158.642,127.667,166.774,126.964,169.764z"/>
			<path style="opacity:0.3;fill:#ED9489;" d="M125.846,172.656c-0.962,1.785-2.263,3.199-3.311,3.739
				c-1.003,0.519-2.182,0.842-3.24,0.849c-0.598,0.004-1.157-0.09-1.622-0.311c-1.089-0.519-3.932-3.658-6.416-6.851
				c-2.261-2.908-4.226-5.859-4.293-6.915c-0.011-0.159,0.007-0.283,0.047-0.379c1.628,2.441,8.025,10.213,10.393,11.355
				C119.456,175.131,123.013,174.643,125.846,172.656z"/>
			<path style="opacity:0.3;fill:#ED9489;" d="M116.959,170.008c-0.06,0-0.944-0.025-2.406-1.52
				c-0.002-0.002-0.004-0.002-0.004-0.004c-0.896-1.472-6.058-10.119-5.012-11.786c0.017-0.027,0.036-0.051,0.058-0.072
				C110.906,159.523,114.855,168.002,116.959,170.008z"/>
			<path style="opacity:0.3;fill:#ED9489;" d="M119.715,168c0,0-0.947,0.04-2.437-2.535v-0.002
				c-1.334-3.645-5.451-15.289-3.885-16.057c0.069-0.032,0.14-0.045,0.219-0.036C114.324,152.471,118.241,165.244,119.715,168z"/>
			<path style="opacity:0.3;fill:#ED9489;" d="M122.349,166.337c-0.097-0.199-0.902-1.89-1.924-4.945
				c-0.004-0.007-0.006-0.013-0.006-0.02c-0.881-4.003-2.608-13.301-1.024-13.181c0.015,0.002,0.028,0.002,0.043,0.006
				C119.901,152.244,121.372,163.611,122.349,166.337z"/>
			<path style="opacity:0.3;fill:#ED9489;" d="M127.039,157.076c-0.814,1.881-2.704,6.971-2.824,8.423c0,0-0.266-1.341-0.394-3.128
				c0.092,0.503,0.144,0.797,0.144,0.797s1.429-7.532,3-6.165C126.99,157.024,127.016,157.05,127.039,157.076z"/>
		</g>
		<path style="opacity:0.8;fill:#F0C793;" d="M99.006,155.428c-0.041-0.104-0.088-0.21-0.138-0.318
			C98.919,155.218,98.965,155.324,99.006,155.428z"/>
		<path style="opacity:0.8;fill:#F0C793;" d="M98.7,154.77c0.058,0.11,0.111,0.218,0.161,0.324
			c-0.049-0.106-0.104-0.215-0.161-0.325C98.7,154.77,98.7,154.769,98.7,154.77z"/>
		<path style="opacity:0.7;fill:#F0C793;" d="M98.869,155.11c-0.002-0.005-0.005-0.011-0.008-0.016
			C98.863,155.099,98.866,155.105,98.869,155.11z"/>
		<path style="opacity:0.7;fill:#F0C793;" d="M98.777,151.512c-0.38-0.98-0.87-1.896-1.457-2.69
			c-2.049-2.773-9.039-9.302-11.268-11.625c-0.816,1.747-1.311,2.887-1.337,2.946c0.03,0.026,8.938,7.481,12.806,12.774
			c0.479,0.657,0.88,1.281,1.179,1.852c0.057,0.11,0.111,0.218,0.161,0.325c0.002,0.005,0.005,0.011,0.008,0.016
			c0.05,0.108,0.097,0.214,0.138,0.318c0.167,0.422,0.381,1.106,0.615,2.01C99.827,155.486,99.504,153.382,98.777,151.512z"/>
		<path style="opacity:0.8;fill:#F0C793;" d="M158.747,154.86v-0.001c-0.396,0.496-0.716,0.898-0.93,1.167
			C158.032,155.756,158.351,155.356,158.747,154.86z"/>
		<path style="fill:#3B2E37;" d="M154.655,344.571c0.454-2.217,1.774,9.857-0.655,14.286s-8.571,10.414-12,9.278
			c-0.684-0.227,0,0,0,0l5.396-14.091C147.396,354.045,153.31,351.143,154.655,344.571z"/>
		<path style="opacity:0.6;fill:#F0C793;" d="M156.964,152.143c0.049-0.215,0.288-0.645,0.66-1.223
			c-1.063-3.748-1.83-6.491-1.83-6.491c-0.08,6.713-0.202,22.138,1.716,35.64c1.594,11.218,2.454,20.867-0.988,28.17
			c2.106-1.181,3.795-2.38,4.871-3.519c0.465-0.49,0.816-0.971,1.035-1.434c1.307-2.769,0.054-13.866-1.528-24.747
			c-0.966-6.632-2.053-13.181-2.754-17.717c-0.002,0.002-0.002,0.002-0.002,0.002C157.778,158.492,156.643,153.536,156.964,152.143z
			"/>
		<path style="opacity:0.7;fill:#F0C793;" d="M157.817,156.026c-0.183,0.23-0.291,0.367-0.304,0.383
			C157.526,156.393,157.634,156.257,157.817,156.026z"/>
		<path style="opacity:0.7;fill:#F0C793;" d="M166.997,138.611c-2.393,2.924-7.538,9.456-9.373,12.309
			c-0.371,0.578-0.61,1.008-0.66,1.223c-0.322,1.393,0.814,6.35,1.181,8.681c0,0,0,0,0.002-0.002
			c-0.289-1.847-0.512-3.36-0.636-4.408c0,0,0.002-0.003,0.002-0.004c0.013-0.017,0.121-0.153,0.304-0.383
			c0.214-0.27,0.534-0.671,0.93-1.167c2.797-3.504,9.431-11.73,10.106-11.786C168.849,143.064,168.137,141.247,166.997,138.611z"/>
		<path style="opacity:0.4;fill:#FFDBB9;" d="M187.751,200.979c-3.262-8.475-7.803-21.064-10.43-29.55
			c-3.276-10.586-5.591-19.686-6.67-24.287c3.013,7.395,7.639,20.863,10.92,32.573C183.66,187.165,185.948,194.953,187.751,200.979z
			"/>
		<path style="fill:#562B47;" d="M126.754,324.007c0.019-1.23,0.03-1.936,0.03-1.936c-0.122-0.221-0.244-0.448-0.368-0.679
			c-0.122-0.232-0.245-0.468-0.369-0.71c-0.062-0.12-0.124-0.242-0.186-0.366c-0.128-0.257-0.259-0.519-0.39-0.786
			c-0.056-0.118-0.111-0.236-0.169-0.354c0,0.002,0,0.002,0,0.004c-0.682-1.423-1.37-2.983-2.06-4.659
			c-1.453-3.531-2.91-7.565-4.31-11.875c2.925,1.782,5.782,3.782,6.883-3.107c0.9-5.137,1.854-10.836,2.612-16.397
			c2.143-15.714,3.872-31.428,4.723-38.713c0.848-7.286,2.115-12.142,2.115-12.142C135.214,238.95,129.437,301.297,126.754,324.007z
			"/>
		<path style="fill:#562B47;" d="M162.137,211.331c-0.234-2.436-0.491-4.63-0.744-6.611c-0.071,0.075-0.145,0.151-0.222,0.227
			c-0.019,0.019-0.039,0.038-0.058,0.057c-0.058,0.057-0.118,0.114-0.178,0.171c-0.025,0.023-0.051,0.046-0.076,0.069
			c-0.058,0.053-0.117,0.107-0.178,0.161c-0.028,0.024-0.056,0.049-0.084,0.073c-0.061,0.053-0.122,0.105-0.185,0.158
			c-0.029,0.025-0.059,0.049-0.089,0.074c-0.064,0.053-0.13,0.106-0.197,0.16c-0.029,0.023-0.059,0.047-0.089,0.071
			c-0.07,0.055-0.142,0.11-0.214,0.166c-0.028,0.021-0.056,0.043-0.084,0.064c-0.078,0.059-0.158,0.119-0.239,0.179
			c-0.024,0.018-0.048,0.035-0.072,0.053c-0.091,0.066-0.184,0.133-0.279,0.199c-0.015,0.011-0.03,0.021-0.045,0.032
			c-2.761,1.931-6.874,3.911-11.469,5.605c-6.137,2.265-13.136,4.02-18.919,4.475c-10.241,0.806-20.295-2.484-23.82-3.793
			c0.013,0.855,0.049,1.95,0.107,3.249c5.008,4.243,18.142,12.428,32.355,8.831c7.965-2.016,14.981-6.167,20.178-9.999
			c1.451,12.503,2.491,34.96,0.393,51.57c-2.571,20.357-9.643,46.071-11.786,53.144c0,0,0.857,22.431-5.785,45.857
			c-4.712,16.616-9.855,26.259-12.448,30.461c0.81,0.465,1.532,1.14,2.184,1.95c1.734-4.284,12.637-31.252,17.304-43.938
			c0.538-1.461,0.992-2.732,1.341-3.759c2.231-6.562,2.96-14.138,2.747-20.749c-0.135-4.185-0.645-7.984-1.393-10.893
			c0,0,10.188-36.169,12.116-61.716C163.768,236.261,163.138,221.646,162.137,211.331z"/>
		<path style="opacity:0.4;fill:#77455A;" d="M119.194,303.443c-0.088-0.264-0.176-0.529-0.262-0.797
			c-3.707-11.406-7.011-24.729-8.79-35.647c-1.5-9.215-2.786-20.785-3.709-31.028c-0.469-5.207-0.844-10.072-1.108-14.106
			c0.997,7.071,2.938,23.432,5.246,36.564C112.991,272.198,117.107,295.179,119.194,303.443z"/>
		<path style="opacity:0.4;fill:#77455A;" d="M127.02,360.275c-1.202,10.713-1.904,30.964-3.719,35.333
			c-0.073,0.021-0.142,0.052-0.206,0.083c0.118-1.894,1.562-24.641,2.398-36.177c0.714-9.843,1.104-28.614,1.224-35.146
			C128.349,334.029,128.015,351.393,127.02,360.275z"/>
		<g>
			<g>
				<path style="fill:#7A496B;" d="M149.106,311.078c-0.174-0.04-0.347,0.066-0.386,0.24c-0.36,1.532-0.692,2.908-0.988,4.091
					c-0.043,0.172,0.062,0.345,0.233,0.39c0.026,0.007,0.054,0.009,0.08,0.009c0.144,0,0.274-0.097,0.311-0.244
					c0.298-1.183,0.63-2.563,0.99-4.099C149.387,311.291,149.28,311.119,149.106,311.078z M150.96,302.856
					c-0.174-0.038-0.343,0.073-0.381,0.247c-0.328,1.486-0.632,2.853-0.917,4.109c-0.038,0.174,0.071,0.348,0.245,0.386
					c0.023,0.005,0.047,0.007,0.071,0.007c0.147,0,0.278-0.102,0.313-0.251c0.283-1.256,0.589-2.625,0.917-4.114
					C151.243,303.066,151.134,302.895,150.96,302.856z M152.739,294.619c-0.174-0.036-0.343,0.075-0.381,0.249
					c-0.309,1.45-0.603,2.821-0.883,4.118c-0.036,0.174,0.073,0.345,0.247,0.382c0.023,0.006,0.047,0.009,0.068,0.009
					c0.148,0,0.281-0.104,0.315-0.256c0.278-1.296,0.574-2.67,0.883-4.12C153.023,294.827,152.912,294.655,152.739,294.619z
					 M154.399,286.354c-0.174-0.032-0.341,0.083-0.373,0.259c-0.257,1.402-0.525,2.792-0.799,4.132
					c-0.037,0.174,0.077,0.345,0.251,0.379c0.021,0.005,0.042,0.007,0.064,0.007c0.15,0,0.283-0.105,0.315-0.255
					c0.274-1.346,0.544-2.741,0.801-4.147C154.69,286.554,154.575,286.387,154.399,286.354z M155.749,278.033
					c-0.173-0.025-0.338,0.095-0.364,0.271c-0.203,1.399-0.42,2.798-0.643,4.161c-0.028,0.176,0.09,0.341,0.266,0.369
					c0.017,0.004,0.037,0.004,0.054,0.004c0.154,0,0.289-0.111,0.315-0.268c0.225-1.367,0.441-2.772,0.645-4.172
					C156.047,278.223,155.925,278.06,155.749,278.033z M156.827,269.67c-0.174-0.021-0.334,0.107-0.355,0.283
					c-0.161,1.41-0.334,2.815-0.513,4.181c-0.021,0.176,0.103,0.336,0.279,0.359c0.013,0.003,0.028,0.003,0.041,0.003
					c0.161,0,0.298-0.118,0.319-0.281c0.178-1.365,0.35-2.775,0.512-4.189C157.131,269.85,157.005,269.691,156.827,269.67z
					 M157.671,261.28c-0.18-0.015-0.332,0.116-0.349,0.292c-0.124,1.406-0.257,2.815-0.396,4.193
					c-0.02,0.176,0.109,0.334,0.287,0.352c0.011,0.002,0.021,0.002,0.032,0.002c0.163,0,0.302-0.122,0.319-0.289
					c0.141-1.38,0.274-2.792,0.398-4.2C157.98,261.452,157.849,261.298,157.671,261.28z M158.306,252.874
					c-0.173-0.009-0.33,0.122-0.341,0.301c-0.092,1.414-0.19,2.828-0.295,4.202c-0.013,0.176,0.118,0.329,0.295,0.345h0.026
					c0.165,0,0.306-0.129,0.319-0.296c0.105-1.376,0.205-2.792,0.298-4.209C158.619,253.039,158.483,252.887,158.306,252.874z
					 M158.749,244.455c-0.178-0.009-0.328,0.131-0.334,0.307c-0.06,1.41-0.129,2.826-0.201,4.208
					c-0.011,0.179,0.126,0.328,0.304,0.339h0.018c0.169,0,0.311-0.133,0.319-0.305c0.075-1.384,0.143-2.803,0.203-4.215
					C159.064,244.611,158.927,244.462,158.749,244.455z M159.009,236.027H159c-0.173,0-0.317,0.139-0.321,0.314
					c-0.028,1.383-0.064,2.801-0.107,4.211c-0.006,0.178,0.133,0.326,0.311,0.332h0.01c0.172,0,0.315-0.137,0.319-0.313
					c0.045-1.412,0.082-2.831,0.109-4.217C159.326,236.178,159.185,236.031,159.009,236.027z M159.398,227.916
					c0-0.178-0.144-0.321-0.321-0.321c-0.178,0.003-0.321,0.146-0.321,0.324c0.002,0.304,0.002,0.612,0.002,0.921
					c0,1.078-0.006,2.186-0.015,3.292c-0.002,0.175,0.142,0.321,0.317,0.323c0.002,0,0.002,0,0.004,0
					c0.176,0,0.319-0.142,0.321-0.319c0.009-1.105,0.015-2.216,0.015-3.296C159.401,228.529,159.401,228.223,159.398,227.916z
					 M159.266,219.48c-0.006-0.178-0.158-0.317-0.332-0.313c-0.178,0.007-0.317,0.154-0.311,0.332
					c0.041,1.361,0.073,2.777,0.096,4.209c0.003,0.176,0.146,0.317,0.322,0.317c0,0,0.002,0,0.004,0
					c0.178-0.004,0.319-0.15,0.317-0.328C159.339,222.264,159.307,220.843,159.266,219.48z M158.846,211.046
					c-0.015-0.176-0.169-0.309-0.345-0.296c-0.178,0.013-0.311,0.167-0.298,0.345c0.096,1.29,0.182,2.703,0.255,4.198
					c0.008,0.171,0.15,0.306,0.321,0.306h0.015c0.178-0.008,0.315-0.161,0.306-0.338
					C159.028,213.761,158.942,212.342,158.846,211.046z"/>
			</g>
			<g>
				<path style="fill:#7A496B;" d="M146.145,323.463c-0.002,0-0.005,0-0.008,0c-0.177-0.004-0.318-0.151-0.313-0.329
					c0.028-1.21,0.026-1.944,0.025-2.1c0-0.013,0-0.024,0-0.037c0.001-0.177,0.145-0.319,0.321-0.319h0.001
					c0.019,0,0.037,0.002,0.055,0.005c0.091-0.222,0.225-0.598,0.417-1.228c0.052-0.169,0.231-0.265,0.401-0.214
					c0.17,0.052,0.266,0.231,0.214,0.401c-0.365,1.199-0.574,1.677-0.766,1.849c-0.003,0.364-0.008,0.926-0.025,1.658
					C146.463,323.324,146.319,323.463,146.145,323.463z"/>
			</g>
			<g>
				<path style="fill:#7A496B;" d="M130.772,390.405c-0.156-0.079-0.351-0.018-0.431,0.142c-0.623,1.225-1.27,2.44-1.926,3.61
					c-0.086,0.156-0.032,0.352,0.124,0.439c0.05,0.027,0.103,0.04,0.157,0.04c0.111,0,0.221-0.06,0.281-0.164
					c0.66-1.179,1.312-2.4,1.937-3.635C130.995,390.68,130.931,390.486,130.772,390.405z M134.19,382.941
					c-0.163-0.068-0.351,0.009-0.42,0.174c-0.529,1.264-1.085,2.526-1.646,3.748c-0.075,0.16-0.004,0.352,0.157,0.426
					c0.042,0.02,0.09,0.028,0.135,0.028c0.12,0,0.237-0.069,0.291-0.186c0.566-1.229,1.123-2.496,1.657-3.768
					C134.432,383.198,134.355,383.01,134.19,382.941z M137.094,375.262c-0.169-0.059-0.352,0.032-0.409,0.199
					c-0.448,1.299-0.917,2.595-1.398,3.853c-0.062,0.165,0.021,0.351,0.187,0.413c0.039,0.016,0.077,0.021,0.116,0.021
					c0.128,0,0.25-0.079,0.3-0.207c0.479-1.265,0.951-2.565,1.403-3.87C137.351,375.504,137.261,375.319,137.094,375.262z
					 M139.534,367.419c-0.171-0.05-0.349,0.049-0.398,0.221c-0.373,1.319-0.767,2.642-1.17,3.928
					c-0.054,0.169,0.04,0.352,0.21,0.402c0.032,0.011,0.064,0.015,0.096,0.015c0.137,0,0.264-0.088,0.307-0.225
					c0.405-1.292,0.799-2.618,1.176-3.945C139.804,367.644,139.704,367.466,139.534,367.419z M141.553,359.453
					c-0.171-0.04-0.345,0.068-0.383,0.242c-0.307,1.335-0.632,2.677-0.966,3.984c-0.045,0.174,0.06,0.347,0.232,0.392
					c0.025,0.007,0.053,0.011,0.079,0.011c0.143,0,0.274-0.097,0.311-0.242c0.336-1.313,0.662-2.659,0.971-4
					C141.836,359.666,141.727,359.494,141.553,359.453z M143.192,351.402c-0.176-0.031-0.343,0.084-0.375,0.258
					c-0.245,1.348-0.506,2.702-0.778,4.026c-0.036,0.176,0.077,0.345,0.251,0.382c0.021,0.004,0.043,0.006,0.065,0.006
					c0.149,0,0.283-0.104,0.315-0.257c0.272-1.331,0.536-2.689,0.78-4.042C143.481,351.6,143.366,351.433,143.192,351.402z
					 M144.474,343.285c-0.176-0.023-0.339,0.1-0.362,0.275c-0.188,1.352-0.39,2.717-0.604,4.056
					c-0.028,0.176,0.092,0.341,0.268,0.368c0.017,0.003,0.035,0.005,0.052,0.005c0.154,0,0.291-0.113,0.317-0.27
					c0.212-1.344,0.416-2.716,0.604-4.071C144.771,343.473,144.649,343.31,144.474,343.285z M145.414,335.121
					c-0.18-0.017-0.334,0.113-0.351,0.289c-0.131,1.355-0.277,2.727-0.435,4.08c-0.02,0.176,0.107,0.337,0.283,0.356
					c0.013,0.002,0.026,0.002,0.039,0.002c0.161,0,0.3-0.12,0.319-0.283c0.156-1.358,0.304-2.734,0.435-4.093
					C145.719,335.295,145.59,335.139,145.414,335.121z M146.006,326.923c-0.18-0.007-0.328,0.129-0.337,0.304
					c-0.069,1.334-0.157,2.711-0.259,4.096c-0.013,0.178,0.12,0.332,0.298,0.345h0.023c0.167,0,0.309-0.128,0.321-0.296
					c0.103-1.391,0.188-2.772,0.257-4.109C146.318,327.084,146.184,326.932,146.006,326.923z"/>
			</g>
		</g>
	</g>
</g>
</svg>
